<?xml version="1.0" encoding="UTF-8"?>
<svg id="Warstwa_1" data-name="Warstwa 1" xmlns="http://www.w3.org/2000/svg" viewBox="0 0 1209.81 237.84">
  <defs>
    <style>
      .cls-1, .cls-2, .cls-3 {
        fill: #fff;
      }

      .cls-4 {
        fill: #e7ecb9;
      }

      .cls-5, .cls-2 {
        opacity: .17;
      }

      .cls-5, .cls-6 {
        fill: #1d1d1b;
      }

      .cls-7 {
        opacity: .2;
      }

      .cls-8 {
        fill: #2a4a20;
      }

      .cls-9 {
        fill: #e20613;
      }

      .cls-3 {
        opacity: .29;
      }

      .cls-10 {
        fill: #002b0e;
        opacity: .18;
      }

      .cls-11 {
        fill: #e84e2b;
      }

      .cls-12 {
        fill: #5e4711;
      }

      .cls-13 {
        fill: #fffbdd;
      }

      .cls-14 {
        fill: #063;
      }
    </style>
  </defs>
  <g>
    <path class="cls-8" d="M282.42,114.2c3.02-1.26,5.4-1.36,7.15-.3,1.75,1.05,2.62,3.16,2.62,6.3,0,.79-.05,1.62-.14,2.49-.09,.87-.28,1.66-.57,2.37-1.23,.3-2.6,.69-4.11,1.16-1.51,.47-3.31,1.14-5.38,2.01-4.24,1.78-8.47,3.99-12.69,6.62-4.22,2.64-8.24,5.08-12.06,7.32-3.71,11.3-7.34,22.67-10.32,34.14-2.56,9.82-4.76,20.03-6.25,30.12-3.15,.74-5.92,.68-8.31-.19-2.4-.87-4.65-2.63-6.76-5.29,.64-1.9,1.42-4.19,2.34-6.86,.92-2.67,2.02-6.03,3.31-10.07,1.29-4.03,2.83-8.93,4.63-14.68,1.8-5.75,3.95-12.62,6.45-20.61-3.89,.5-6.43-.65-7.62-3.5,.46-.72,1.75-1.92,3.88-3.6,2.12-1.67,4.72-3.64,7.78-5.88,1.39-4.49,2.6-8.47,3.62-11.95,1.02-3.47,1.95-6.76,2.79-9.85,.84-3.09,1.61-6.1,2.3-9.03,.7-2.92,1.33-5.99,1.89-9.19-.28,.13-.42,.19-.7,.32-3.54,1.63-6.4,2.08-8.58,1.34-2.18-.74-3.27-2.54-3.27-5.4,0-.79,.12-1.78,.35-2.98,.23-1.19,.53-2.28,.9-3.24,1.76-.7,3.5-1.45,5.22-2.25,1.72-.8,3.98-1.85,6.77-3.13,5.88-2.69,11.4-5.13,16.57-7.36,5.16-2.23,9.86-4.43,14.06-6.62,4.2-2.19,7.83-4.08,10.86-5.69,3.03-1.61,5.36-2.71,6.98-3.33,2.19-.84,4.14-.4,5.86,1.32s3.05,4.56,4.01,8.53c-3.06,.74-5.51,1.46-7.37,2.17-1.86,.7-3.5,1.34-4.92,1.89-4.85,1.88-9.28,3.86-13.3,5.94-4.02,2.08-7.82,4.17-11.39,6.27-.57,1.12-1.2,2.52-1.91,4.19s-1.62,4-2.75,6.98c-1.13,2.98-2.56,6.86-4.29,11.63-1.74,4.77-3.91,10.82-6.53,18.16,3.65-2.22,7.14-4.25,10.47-6.08,3.33-1.83,6.14-3.21,8.4-4.16Z"/>
    <path class="cls-8" d="M301.58,158.04c0-.88,.07-2.02,.21-3.4,.14-1.38,.4-3.25,.78-5.61,.38-2.36,.88-5.23,1.5-8.61,.62-3.38,1.4-7.47,2.35-12.25,.19-1.05,.62-2.79,1.28-5.21,.67-2.41,1.55-5.03,2.64-7.85,1.09-2.82,2.43-5.65,4-8.5,1.57-2.84,3.46-5.21,5.66-7.09,1.62-.2,3.78,.03,6.46,.71,2.68,.67,4.99,2.11,6.91,4.3-2.21,3.32-4.06,6.52-5.54,9.59-1.49,3.08-2.83,6.21-4.02,9.39-1.2,3.18-2.3,6.43-3.3,9.74-1,3.31-2.13,6.82-3.37,10.51-1.05,3.14-2.01,6.32-2.86,9.53-.86,3.22-1.38,5.97-1.43,8.12-.04,1.73-.02,3.03-.07,3.79-.05,.75-.31,1.22-.79,1.4-.38,.14-1.15,.18-2.29,.12-1.14-.06-2.31-.38-3.5-.95-1.19-.58-2.26-1.47-3.21-2.67-.95-1.2-1.42-2.88-1.42-5.05Zm27.35-74.08c0-.59,.14-1.52,.43-2.8-.48-.32-.89-.92-1.22-1.78-.34-.86-.5-1.69-.5-2.48,0-.88,.12-2.13,.36-3.74,.24-1.61,.55-3.36,.93-5.27,.38-1.9,.86-3.91,1.44-6.03,.58-2.12,1.15-4.06,1.73-5.83,1.15-.4,2.57-.57,4.25-.5,1.68,.07,3.39,.33,5.12,.78,1.73,.46,3.33,1.06,4.77,1.82,1.45,.76,2.56,1.55,3.33,2.39-1.06,1.42-2.46,3.37-4.2,5.86-1.74,2.48-3.42,5.06-5.06,7.72-1.64,2.66-3.13,5.15-4.47,7.48-1.35,2.33-2.21,3.95-2.59,4.87-1.15,.2-2.16,.03-3.02-.5-.86-.53-1.29-1.19-1.29-1.98Z"/>
    <path class="cls-8" d="M387.57,80.75c.17,1.59-.42,3.92-.95,6.08-.54,2.16-1.2,4.16-1.98,5.99-.78,1.83-1.61,3.41-2.49,4.74-.88,1.32-1.73,2.14-2.48,2.31-1.02,.24-1.7-.35-1.9-1.68,0-.29,.12-.79,.36-1.5,.24-.71,.51-1.49,.8-2.36,.29-.87,.56-1.73,.8-2.58,.24-.85,.37-1.58,.37-2.17,0-1.38-.32-2.44-.95-3.2-.63-.75-1.49-.98-2.55-.68-3.89,1.11-6.85,4.42-8.89,9.92-2.04,5.49-3.06,12.99-3.06,22.47,0,.98,.08,1.69,.15,1.72,.76,.3,3.86-1.15,5.46-1.62,1.6-.47,4.22-1.59,4.74-1.37,.07,.03,.15,.55,.15,1.13,0,.88-.2,1.57-.58,2.07-2.24,1.13-4.01,2.07-5.32,2.8-1.31,.73-2.31,1.34-2.98,1.84-.68,.5-1.09,.94-1.24,1.32-.15,.39-.22,.87-.22,1.46,0,.78,.02,1.56,.07,2.32,.05,.77,.07,1.74,.07,2.91,0,8.21-2.21,15.48-6.61,21.84-4.4,6.36-10.52,11.18-18.32,14.58-1.35,.35-2.74,.43-4.18,.23-1.44-.2-2.81-.61-4.11-1.24-1.3-.63-2.42-1.44-3.38-2.43-.96-.99-1.85-2.25-2.01-3.34-.48-3.17,.77-7.62,2.3-11.58,1.53-3.95,3.62-7.7,6.26-11.23,2.64-3.53,5.77-6.71,9.38-9.53,3.61-2.82,7.55-4.9,11.8-6.23,0-2.47-.24-4.81-.73-7.02-.48-2.21-.99-4.35-1.52-6.4-.53-2.05-1.04-4.06-1.52-6.03-.48-1.97-.72-3.99-.72-6.06,0-2.66,.53-5.47,1.59-8.42,1.06-2.95,2.46-5.81,4.21-8.57,1.74-2.76,3.78-5.28,6.1-7.57,2.33-2.28,4.75-4.09,7.28-5.42,1.07-.02,2.5,.43,4.3,1.33,1.8,.91,3.58,2,5.33,3.28,1.75,1.28,3.31,2.64,4.68,4.09,1.36,1.44,2.39,2.86,2.49,3.82Zm-47.98,81.71c2.31-1.76,4.5-3.91,6.58-6.45,2.07-2.54,3.88-5.24,5.43-8.09,1.54-2.85,2.78-5.75,3.7-8.69,.92-2.94,1.38-5.69,1.38-8.24-1.94,.9-4.06,2.48-6.38,4.74-2.32,2.27-4.49,4.79-6.51,7.57-2.02,2.78-3.71,5.53-5.06,8.24-1.35,2.71-2.02,4.91-2.02,6.58,0,2.16,.96,3.6,2.89,4.33Z"/>
    <path class="cls-8" d="M389.77,136.54c0-3.44,.34-7.58,1.03-12.43,.68-4.85,1.68-10.1,3-15.75,1.32-5.65,2.88-11.61,4.69-17.87,1.81-6.26,3.88-12.59,6.1-18.92,1.98-5.66,4.24-11.51,6.84-17.43,2.6-5.92,5.42-11.79,8.47-17.6,3.05-5.8,6.22-11.37,9.52-16.7,3.3-5.33,6.63-10.25,9.98-14.76,1.58-.32,3.28-.46,5.11-.43,1.83,.03,3.61,.21,5.34,.52,1.73,.31,3.31,.78,4.75,1.4,1.43,.62,2.6,1.3,3.49,2.02-7,8.69-13.87,17.54-20.02,26.76-5.15,7.71-10.19,16.19-14.04,24.73-1.87,4.15-3.57,8.02-5.09,11.61-1.52,3.59-2.93,7.14-4.2,10.63-1.28,3.49-2.43,6.96-3.46,10.4-1.03,3.44-1.99,7.04-2.87,10.79,10.14-14.97,24-40.78,42.11-45.18,2.41-.59,5.34-.16,8.31,.98,2.97,1.14,5.6,2.95,7.88,5.41-3.08,3.86-6.25,8.44-9.51,13.74-3.27,5.3-6.26,10.61-8.98,15.89-2.72,5.29-4.94,10.15-6.67,14.57-1.73,4.42-2.59,7.62-2.59,9.59,0,.98,.15,1.62,.44,1.9,.3,.28,.94,.33,1.93,.13,1.48-.3,2.67-.73,3.56-1.29,.89-.57,1.43-.87,1.63-.91,.49,.69,.79,1.17,.89,1.45,.1,.27,.15,.51,.15,.71,0,.39-.59,1.07-1.78,2.04-1.19,.97-2.59,1.98-4.22,3.04-1.63,1.06-3.24,2.05-4.81,2.97-1.58,.92-2.76,1.46-3.55,1.62-.99,.21-1.97,.15-2.96-.18-.99-.33-1.85-.86-2.59-1.58-.74-.72-1.33-1.57-1.77-2.56-.44-.98-.66-2.06-.66-3.24,0-1.47,.42-3.75,1.25-6.83,.84-3.08,1.99-6.72,3.47-10.92,1.48-4.2,3.25-8.82,5.32-13.87,2.07-5.05,4.29-10.22,6.66-15.51,0-.39-.2-.55-.59-.47-.3,.06-1.06,.61-2.3,1.64-1.24,1.04-2.39,2.06-3.48,3.07-3.55,3.39-7.12,7.42-10.72,12.1-3.59,4.68-7.08,9.72-10.47,15.14-3.39,5.41-6.58,11.07-9.56,16.97-2.99,5.9-5.56,11.73-7.71,17.49-.29,.76-.73,1.52-1.32,2.26-.59,.74-1.08,1.16-1.47,1.27-.29,.08-.71-.16-1.25-.71-.54-.55-1.03-1.28-1.47-2.19-.44-.92-.86-1.86-1.24-2.84-.39-.97-.59-1.86-.59-2.64Z"/>
    <path class="cls-8" d="M468.65,112.13c0-.88,.07-2,.22-3.35,.15-1.35,.42-3.17,.82-5.44,.4-2.27,.92-5.04,1.56-8.29,.64-3.25,1.46-7.16,2.46-11.74,.2-1.01,.65-2.66,1.34-4.93,.69-2.27,1.61-4.7,2.76-7.28,1.14-2.58,2.53-5.13,4.17-7.63,1.64-2.5,3.6-4.46,5.89-5.87,1.69,.15,3.93,.85,6.72,2.09,2.79,1.25,5.18,3.18,7.17,5.78-2.29,2.84-4.21,5.65-5.75,8.4-1.55,2.76-2.94,5.6-4.18,8.52-1.25,2.92-2.39,5.93-3.43,9.03-1.04,3.1-2.21,6.36-3.51,9.79-1.1,2.91-2.09,5.88-2.98,8.92-.89,3.03-1.44,5.69-1.49,7.81-.04,1.73-.02,3.03-.07,3.77-.05,.74-.32,1.15-.82,1.23-.4,.06-1.19-.06-2.38-.37-1.19-.31-2.41-.88-3.65-1.71-1.24-.83-2.36-1.95-3.35-3.36-.99-1.41-1.49-3.19-1.49-5.35Zm28.48-68.19c0-.59,.15-1.49,.45-2.71-.5-.43-.92-1.11-1.27-2.04-.35-.93-.52-1.8-.52-2.58,0-.88,.12-2.1,.37-3.66,.25-1.55,.57-3.25,.97-5.07,.4-1.82,.9-3.73,1.49-5.72,.6-1.99,1.2-3.81,1.79-5.46,1.2-.15,2.67-.02,4.41,.41,1.74,.43,3.51,1.05,5.31,1.88s3.44,1.77,4.94,2.84c1.5,1.07,2.64,2.1,3.44,3.1-1.1,1.2-2.55,2.85-4.34,4.96-1.8,2.11-3.54,4.33-5.24,6.64-1.7,2.31-3.24,4.49-4.64,6.52-1.4,2.04-2.29,3.48-2.69,4.31-1.2-.05-2.24-.43-3.14-1.15-.9-.72-1.34-1.47-1.34-2.26Z"/>
    <path class="cls-8" d="M530.2,42.64c2.6,.55,5.05,2.09,7.35,4.6,2.3,2.51,4,5.36,5.1,8.52-1.1,2.74-2.8,6.06-5.1,9.98-2.3,3.92-4.6,7.93-6.9,12.01-2.3,4.09-4.37,7.97-6.22,11.64-1.85,3.67-2.92,6.65-3.22,8.94,1.6-1.83,3.37-3.95,5.32-6.34,1.95-2.4,3.85-4.78,5.7-7.15,1.85-2.37,3.57-4.53,5.17-6.48,1.6-1.95,2.85-3.4,3.75-4.35,1.9-2.11,4.15-4.56,6.75-7.35,2.6-2.78,5.33-5.42,8.18-7.9,2.85-2.48,5.73-4.6,8.64-6.36,2.9-1.76,5.56-2.69,7.96-2.78,2.6-.1,4.79,.68,6.54,2.35,1.75,1.66,3.13,3.42,4.13,5.26,0,.2-.38,.48-1.13,.84-.75,.37-1.91,1.36-3.23,2.97-1.41,1.72-2.98,4.3-4.73,7.46-1.75,3.16-3.46,6.57-5.11,10.23-1.65,3.66-3.03,7.39-4.13,11.17-1.1,3.79-1.65,7.21-1.65,10.25,0,2.46,.33,4.01,.98,4.67,.65,.65,1.58,.95,2.78,.9,1.1-.05,2.25-.35,3.46-.89,1.2-.54,2.33-.96,2.86-.85,.33,.07,.73,.59,.98,1.22,.25,.63,.38,1.19,.38,1.68-.8,.72-1.75,1.44-2.86,2.17-1.1,.73-2.25,1.42-3.46,2.06-1.2,.64-2.38,1.19-3.53,1.64-1.15,.45-2.18,.7-3.08,.75-2.91,.15-5.28-.13-7.13-.85-1.85-.72-3.3-1.73-4.35-3.04-1.05-1.3-1.78-2.9-2.18-4.79-.4-1.89-.6-3.91-.6-6.07,0-1.18,.1-2.51,.3-4,.2-1.49,.6-3.26,1.2-5.31,.6-2.05,1.45-4.52,2.55-7.39,1.1-2.87,2.5-6.32,4.2-10.36-.2,.01-1.55,.78-4.05,2.32-2.5,1.54-5.2,3.84-8.11,6.9-4.7,4.77-8.93,9.5-12.67,14.16-3.75,4.66-7.57,9.84-11.46,15.55-2.2,3.27-4.12,6.06-5.76,8.35-1.65,2.29-3.07,3.86-4.26,4.68-2.09-.94-3.64-2.4-4.64-4.39-1-1.99-2.02-4.29-2.24-6.28-.18-1.65,.27-4.26,.82-7.18,.55-2.91,1.3-6.18,2.24-9.78,.95-3.6,2.12-7.4,3.51-11.4,1.4-3.99,2.94-8,4.64-12.02,3.79-9.06,7.26-16.2,10.41-21.42,3.15-5.22,5.12-8.05,5.92-8.52Z"/>
    <path class="cls-8" d="M558.86,155.94c0-.59,.2-1.14,.6-1.66,.4-.51,.85-1.03,1.35-1.55,1.2,1.02,2.23,1.8,3.08,2.35,.85,.55,1.65,1,2.4,1.36,.75,.36,1.53,.57,2.33,.63,.8,.06,1.75,.07,2.85,.03,5.21-.21,10.17-1.72,14.88-4.53,4.71-2.81,9.15-6.78,13.31-11.92,4.16-5.14,7.94-11.38,11.35-18.72,3.41-7.35,6.41-15.66,9.02-24.95-1.2,1.16-2.68,2.44-4.44,3.84-1.76,1.4-3.59,2.74-5.49,4.01-1.91,1.27-3.78,2.44-5.64,3.53-1.86,1.09-3.44,1.88-4.74,2.38-1.71-.28-3.29-.98-4.74-2.09-1.45-1.11-2.73-2.49-3.83-4.14-1.1-1.65-1.95-3.52-2.56-5.63-.6-2.1-.9-4.33-.9-6.69,0-3.83,.73-7.78,2.18-11.83,1.45-4.05,3.38-8.04,5.79-11.95,2.4-3.91,5.24-7.59,8.5-11.04,3.26-3.44,6.72-6.43,10.38-8.95,3.66-2.52,7.37-4.49,11.13-5.93,3.76-1.43,7.44-2.08,11.05-1.95,3.51,.13,6.14,.96,7.89,2.46,1.75,1.5,3.03,4,3.83,7.48-1.1-.65-2.51-1.01-4.21-1.09-2.4-.11-5.19,.71-8.34,2.46-3.16,1.75-6.36,4.09-9.62,7.01-3.26,2.92-6.49,6.3-9.7,10.14-3.21,3.84-6.04,7.78-8.5,11.8-2.46,4.02-4.46,7.96-6.02,11.8-1.55,3.84-2.33,7.29-2.33,10.33,0,.69,.05,1.11,.15,1.25,.1,.15,.25,.22,.45,.22,.9,0,2.13-.5,3.68-1.49,1.55-.98,3.31-2.24,5.26-3.75,1.95-1.51,3.99-3.27,6.09-5.26,2.1-1.99,4.11-4,6.01-6.03,4.31-4.64,8.24-9.81,11.8-15.54,3.56-5.73,6.39-11.29,8.49-16.7,2.7,.31,5.11,.87,7.21,1.67,2.1,.8,3.55,1.62,4.36,2.45-3.4,7.47-6.13,13.77-8.19,18.88-2.05,5.11-3.83,9.65-5.33,13.62-2.71,6.96-5.24,13.34-7.59,19.11-2.35,5.77-4.76,11.11-7.22,16.02-2.46,4.9-5.11,9.47-7.97,13.71-2.86,4.24-6.09,8.31-9.7,12.23-1.71,1.86-3.64,3.51-5.79,4.95-2.15,1.43-4.36,2.66-6.62,3.67-2.25,1.01-4.46,1.79-6.62,2.32-2.16,.54-4.13,.83-5.94,.88-2.41,.07-4.86-.12-7.37-.57-2.5-.45-4.83-1.09-6.99-1.92-2.15-.84-4.03-1.82-5.63-2.97-1.6-1.14-2.75-2.38-3.45-3.72Z"/>
    <path class="cls-8" d="M727.23,30.23c-3.98-.58-7.04-2.11-9.18-4.61-2.14-2.5-3.21-5.33-3.21-8.48,0-.79,.12-1.71,.37-2.76,.25-1.05,.57-1.94,.97-2.68,1.29,.51,3.21,1.01,5.75,1.5s5.5,.99,8.88,1.5c5.07,.76,10.8,1.68,17.2,2.78,6.39,1.1,12.5,1.93,18.34,2.48,5.83,.54,10.96,1.04,15.39,1.46,4.43,.42,7.29,.79,8.56,1.08,3.64,.82,6.27,2.79,7.89,5.87,1.62,3.09,2.82,6.98,3.61,11.69-2.55-.91-5.08-1.65-7.59-2.23-2.51-.58-4.65-1.06-6.42-1.45-3.15-.7-6.33-1.39-9.53-2.06-3.21-.67-6.44-1.14-9.7-1.39-1.38,2.58-2.91,5.66-4.6,9.23-1.68,3.57-3.34,7.32-4.97,11.25-1.63,3.93-3.19,7.86-4.68,11.78-1.49,3.92-2.77,7.46-3.86,10.62-2.18,6.12-4.09,11.81-5.72,17.05-1.64,5.24-3.08,10.16-4.32,14.73-1.24,4.58-2.31,8.96-3.2,13.16-.89,4.19-1.69,8.3-2.38,12.33-6.66-2.02-12.23-6.93-16.71-14.81,.8-2.94,1.77-6.12,2.91-9.55,1.14-3.43,2.49-7.32,4.03-11.66,1.54-4.35,3.36-9.26,5.44-14.75,2.09-5.48,4.47-11.7,7.15-18.64,.99-2.59,2.03-5.3,3.13-8.12,1.09-2.82,2.16-5.61,3.2-8.39,1.04-2.77,1.98-5.46,2.83-8.07,.84-2.61,1.56-4.99,2.16-7.15-4.16-.23-8.11-.46-11.83-.71-3.72-.25-7.03-.57-9.91-1Z"/>
    <path class="cls-8" d="M907.53,121.75c-1.52-.59-3.38-.34-5.57,.75-2.19,1.09-4.55,2.67-7.08,4.74-2.53,2.07-5.16,4.44-7.89,7.11-2.73,2.67-5.37,5.36-7.91,8.07-2.54,2.71-4.92,5.28-7.14,7.68-2.22,2.41-4.09,4.3-5.64,5.66-2.12-1.58-3.96-3.47-5.5-5.69-1.55-2.21-2.66-4.7-3.33-7.47,.48-2.89,1.16-5.84,2.03-8.85,.87-3.01,2.01-6.05,3.4-9.13,1.4-3.08,3.14-6.22,5.21-9.41,2.07-3.19,4.6-6.44,7.58-9.75-1.44-.49-3.42-.15-5.92,1.04-2.5,1.19-5.2,2.91-8.1,5.18-2.9,2.27-5.89,4.92-8.99,7.94-3.1,3.03-6.02,6.06-8.72,9.09-3.59,4.03-6.58,7.67-8.97,10.83-2.38,3.16-4.11,4.94-5.18,5.33-2.54-2.57-4.29-5.06-5.27-7.49s-2.03-5.29-2.2-7.81c-.14-2.08,.46-5.18,1.1-8.55,.63-3.37,1.54-6.76,2.71-10.17,2.24-6.56,5.14-12.88,8.69-18.95,3.55-6.06,6.98-11.55,10.28-16.46,2.72,1.4,5.17,3.08,7.34,5.03,2.18,1.95,4.47,4.53,6.89,7.76-.97,2.74-2.46,5.48-4.5,8.24-2.03,2.76-4.16,5.66-6.39,8.72-2.23,3.06-4.27,6.29-6.11,9.67-1.85,3.39-3.06,7.02-3.64,10.87,2.72-3.14,5.95-6.71,9.68-10.69,3.73-3.98,7.56-7.61,11.47-10.88,3.91-3.27,7.79-5.84,11.64-7.69,3.85-1.86,7.31-2.24,10.38-1.17,1.15,.4,2.4,1.04,3.74,1.91,1.34,.87,2.59,1.8,3.73,2.81,1.15,1,2.1,1.92,2.87,2.73,.76,.82,1.19,1.39,1.29,1.72-.48,1.79-1.6,4.06-3.37,6.81-1.77,2.75-3.66,5.64-5.67,8.66-2.01,3.02-3.88,5.98-5.61,8.87-1.73,2.89-2.74,5.32-3.03,7.29,4.71-4.98,9.12-9.4,13.24-13.27,4.11-3.88,7.98-7.04,11.6-9.51,3.62-2.47,6.97-4.13,10.06-4.98,3.08-.86,6-.73,8.74,.38,1.89,.76,3.66,2,5.32,3.72,1.65,1.71,2.81,3.69,3.47,5.93-.85,2.59-2.24,5.55-4.18,8.88-1.94,3.33-3.9,6.88-5.89,10.65-1.99,3.77-3.77,7.56-5.33,11.36s-2.35,7.48-2.35,11.02c0,2.06,.29,3.53,.85,4.39,.57,.86,1.38,1.5,2.42,1.91,1.14,.45,2.2,.65,3.2,.61,.99-.04,1.73,.03,2.2,.22,.57,.62,.9,1.25,.99,1.88,.09,.63,.14,1.19,.14,1.68-1.89,.8-3.83,1.33-5.82,1.57-1.99,.24-4.22-.12-6.69-1.07-2.28-.88-4.16-1.99-5.64-3.33-1.48-1.34-2.69-2.88-3.65-4.61-.95-1.73-1.62-3.55-2-5.45-.38-1.91-.57-3.89-.57-5.95,0-3.33,.43-6.49,1.29-9.46,.86-2.97,1.88-5.72,3.07-8.27,1.19-2.54,2.46-4.86,3.79-6.95,1.33-2.09,2.47-3.98,3.42-5.68Z"/>
    <path class="cls-8" d="M986.08,140.97c-.37,5.91-1.38,10.62-3.03,14.16-1.66,3.54-4.03,6.18-7.12,7.95-3.09,1.77-6.86,2.91-11.31,3.45-4.45,.54-9.67,.67-15.65,.44,0,.59-.02,1.19-.07,1.81-.05,.62-.07,1.27-.07,1.96,0,1.28,.09,2.65,.28,4.11,.19,1.46,.51,2.88,.98,4.27,.47,1.39,1.12,2.64,1.96,3.76,.84,1.12,1.91,1.97,3.22,2.57,2.52,1.16,4.98,1.71,7.4,1.67,2.41-.04,4.71-.4,6.89-1.07,2.17-.67,4.21-1.55,6.1-2.63,1.89-1.08,3.57-2.09,5.05-3.02,.92,1.34,1.7,2.57,2.35,3.68-4.14,3.81-8.68,6.45-13.63,7.94-4.95,1.49-9.67,1.76-14.14,.79-6.43-3.74-11.47-8.44-15.08-14.19-3.61-5.75-5.42-11.55-5.42-17.45,0-4.03,.54-7.9,1.62-11.61,1.08-3.71,2.58-7.09,4.51-10.13,1.92-3.04,4.17-5.71,6.74-8,2.57-2.29,5.33-4.04,8.26-5.24,2.93-1.2,5.96-1.81,9.07-1.8,3.11,0,6.43,.68,9.23,2.24,4.15,2.31,8.21,7.45,11.88,14.34Zm-9.53,.08c-2.49-.84-5.08-1.02-7.76-.54-2.69,.48-5.21,1.64-7.58,3.47s-4.54,4.28-6.49,7.31c-1.96,3.03-3.5,6.56-4.62,10.57,7.47-.56,13.65-2.49,18.56-5.87,4.91-3.39,7.53-8.34,7.9-14.94Z"/>
  </g>
  <g>
    <path class="cls-14" d="M280.56,109.57c3.02-1.26,5.4-1.36,7.15-.3,1.75,1.05,2.62,3.16,2.62,6.3,0,.79-.05,1.62-.14,2.49-.09,.87-.28,1.66-.57,2.37-1.23,.3-2.6,.69-4.11,1.16-1.51,.47-3.31,1.14-5.38,2.01-4.24,1.78-8.47,3.99-12.69,6.62-4.22,2.64-8.24,5.08-12.06,7.32-3.71,11.3-7.34,22.67-10.32,34.14-2.56,9.82-4.76,20.03-6.25,30.12-3.15,.74-5.92,.68-8.31-.19-2.4-.87-4.65-2.63-6.76-5.29,.64-1.9,1.42-4.19,2.34-6.86,.92-2.67,2.02-6.03,3.31-10.07,1.29-4.03,2.83-8.93,4.63-14.68,1.8-5.75,3.95-12.62,6.45-20.61-3.89,.5-6.43-.65-7.62-3.5,.46-.72,1.75-1.92,3.88-3.6,2.12-1.67,4.72-3.64,7.78-5.88,1.39-4.49,2.6-8.47,3.62-11.95,1.02-3.47,1.95-6.76,2.79-9.85,.84-3.09,1.61-6.1,2.3-9.03,.7-2.92,1.33-5.99,1.89-9.19-.28,.13-.42,.19-.7,.32-3.54,1.63-6.4,2.08-8.58,1.34-2.18-.74-3.27-2.54-3.27-5.4,0-.79,.12-1.78,.35-2.98,.23-1.19,.53-2.28,.9-3.24,1.76-.7,3.5-1.45,5.22-2.25,1.72-.8,3.98-1.85,6.77-3.13,5.88-2.69,11.4-5.13,16.57-7.36,5.16-2.23,9.86-4.43,14.06-6.62,4.2-2.19,7.83-4.08,10.86-5.69,3.03-1.61,5.36-2.71,6.98-3.33,2.19-.84,4.14-.4,5.86,1.32,1.72,1.71,3.05,4.56,4.01,8.53-3.06,.74-5.51,1.46-7.37,2.17-1.86,.7-3.5,1.34-4.92,1.89-4.85,1.88-9.28,3.86-13.3,5.94-4.02,2.08-7.82,4.17-11.39,6.27-.57,1.12-1.2,2.52-1.91,4.19-.71,1.67-1.62,4-2.75,6.98-1.13,2.98-2.56,6.86-4.29,11.63-1.74,4.77-3.91,10.82-6.53,18.16,3.65-2.22,7.14-4.25,10.47-6.08,3.33-1.83,6.14-3.21,8.4-4.16Z"/>
    <path class="cls-14" d="M299.72,153.4c0-.88,.07-2.02,.21-3.4,.14-1.38,.4-3.25,.78-5.61,.38-2.36,.88-5.23,1.5-8.61,.62-3.38,1.4-7.47,2.35-12.25,.19-1.05,.62-2.79,1.28-5.21,.67-2.41,1.55-5.03,2.64-7.85,1.09-2.82,2.43-5.65,4-8.5,1.57-2.84,3.46-5.21,5.66-7.09,1.62-.2,3.78,.03,6.46,.71,2.68,.67,4.99,2.11,6.91,4.3-2.21,3.32-4.06,6.52-5.54,9.59-1.49,3.08-2.83,6.21-4.02,9.39-1.2,3.18-2.3,6.43-3.3,9.74-1,3.31-2.13,6.82-3.37,10.51-1.05,3.14-2.01,6.32-2.86,9.53-.86,3.22-1.38,5.97-1.43,8.12-.04,1.73-.02,3.03-.07,3.78-.05,.75-.31,1.22-.79,1.4-.38,.14-1.15,.18-2.29,.12-1.14-.06-2.31-.38-3.5-.95-1.19-.58-2.26-1.47-3.21-2.67-.95-1.2-1.42-2.88-1.42-5.05Zm27.35-74.08c0-.59,.14-1.52,.43-2.8-.48-.32-.89-.92-1.22-1.78-.34-.86-.5-1.69-.5-2.48,0-.88,.12-2.13,.36-3.74,.24-1.61,.55-3.36,.93-5.27,.38-1.9,.86-3.91,1.44-6.03,.58-2.12,1.15-4.06,1.73-5.83,1.15-.4,2.57-.57,4.25-.5,1.68,.07,3.39,.33,5.12,.78,1.73,.46,3.33,1.06,4.77,1.82,1.45,.76,2.56,1.55,3.33,2.39-1.06,1.42-2.46,3.37-4.2,5.86-1.74,2.48-3.42,5.06-5.06,7.72-1.64,2.66-3.13,5.15-4.47,7.48-1.35,2.33-2.21,3.95-2.59,4.87-1.15,.2-2.16,.03-3.02-.5-.86-.53-1.29-1.19-1.29-1.98Z"/>
    <path class="cls-14" d="M385.71,76.12c.17,1.59-.42,3.92-.95,6.08-.54,2.16-1.2,4.16-1.98,5.99-.78,1.83-1.61,3.41-2.49,4.74-.88,1.32-1.73,2.14-2.48,2.31-1.02,.24-1.7-.35-1.9-1.68,0-.29,.12-.79,.36-1.5,.24-.71,.51-1.49,.8-2.36,.29-.87,.56-1.73,.8-2.58,.24-.85,.37-1.58,.37-2.17,0-1.38-.32-2.44-.95-3.2-.63-.75-1.49-.98-2.55-.68-3.89,1.11-6.85,4.42-8.89,9.92-2.04,5.49-3.06,12.99-3.06,22.47,0,.98,.08,1.69,.15,1.72,.76,.3,3.86-1.15,5.46-1.62,1.6-.47,4.22-1.59,4.74-1.37,.07,.03,.15,.55,.15,1.13,0,.88-.2,1.57-.58,2.07-2.24,1.13-4.01,2.07-5.32,2.8-1.31,.73-2.31,1.34-2.98,1.84-.68,.5-1.09,.94-1.24,1.32-.15,.39-.22,.87-.22,1.46,0,.78,.02,1.56,.07,2.32,.05,.77,.07,1.74,.07,2.91,0,8.21-2.21,15.48-6.61,21.84-4.4,6.36-10.52,11.18-18.32,14.58-1.35,.35-2.74,.43-4.18,.23-1.44-.2-2.81-.61-4.11-1.24-1.3-.63-2.42-1.44-3.38-2.43-.96-.99-1.85-2.25-2.01-3.34-.48-3.17,.77-7.62,2.3-11.58,1.53-3.95,3.62-7.7,6.26-11.23,2.64-3.53,5.77-6.71,9.38-9.53,3.61-2.82,7.55-4.9,11.8-6.23,0-2.47-.24-4.81-.73-7.02-.48-2.21-.99-4.35-1.52-6.4-.53-2.05-1.04-4.06-1.52-6.03-.48-1.97-.72-3.99-.72-6.06,0-2.66,.53-5.47,1.59-8.42,1.06-2.95,2.46-5.81,4.21-8.57,1.74-2.76,3.78-5.28,6.1-7.57,2.33-2.28,4.75-4.09,7.28-5.42,1.07-.02,2.5,.43,4.3,1.33,1.8,.91,3.58,2,5.33,3.28,1.75,1.28,3.31,2.64,4.68,4.09,1.36,1.44,2.39,2.86,2.49,3.82Zm-47.98,81.71c2.31-1.76,4.5-3.91,6.58-6.45,2.07-2.54,3.88-5.24,5.43-8.09,1.54-2.85,2.78-5.75,3.7-8.69,.92-2.94,1.38-5.69,1.38-8.24-1.94,.9-4.06,2.48-6.38,4.74-2.32,2.27-4.49,4.79-6.51,7.57-2.02,2.78-3.71,5.53-5.06,8.24-1.35,2.71-2.02,4.91-2.02,6.58,0,2.16,.96,3.6,2.89,4.33Z"/>
    <path class="cls-14" d="M387.9,131.9c0-3.44,.34-7.58,1.03-12.43,.68-4.85,1.68-10.1,3-15.75,1.32-5.65,2.88-11.61,4.69-17.87,1.81-6.26,3.88-12.59,6.1-18.92,1.98-5.66,4.24-11.51,6.84-17.43,2.6-5.92,5.42-11.79,8.47-17.6,3.05-5.8,6.22-11.37,9.52-16.7,3.3-5.33,6.63-10.25,9.98-14.76,1.58-.32,3.28-.46,5.11-.43,1.83,.03,3.61,.21,5.34,.52,1.73,.31,3.31,.78,4.75,1.4,1.43,.62,2.6,1.3,3.49,2.02-7,8.69-13.87,17.54-20.02,26.76-5.15,7.71-10.19,16.19-14.04,24.73-1.87,4.15-3.57,8.02-5.09,11.61-1.52,3.59-2.93,7.14-4.2,10.63-1.28,3.49-2.43,6.96-3.46,10.4-1.03,3.44-1.99,7.04-2.87,10.79,10.14-14.97,24-40.78,42.11-45.18,2.41-.59,5.34-.16,8.31,.98,2.97,1.14,5.6,2.95,7.88,5.41-3.08,3.86-6.25,8.44-9.51,13.74-3.27,5.3-6.26,10.61-8.98,15.89-2.72,5.29-4.94,10.15-6.67,14.57-1.73,4.42-2.59,7.62-2.59,9.59,0,.98,.15,1.62,.44,1.9,.3,.28,.94,.33,1.93,.13,1.48-.3,2.67-.73,3.56-1.29,.89-.57,1.43-.87,1.63-.91,.49,.69,.79,1.17,.89,1.45,.1,.27,.15,.51,.15,.71,0,.39-.59,1.07-1.78,2.04-1.19,.97-2.59,1.98-4.22,3.04-1.63,1.06-3.24,2.05-4.81,2.97-1.58,.92-2.76,1.46-3.55,1.62-.99,.21-1.97,.15-2.96-.18-.99-.33-1.85-.86-2.59-1.58-.74-.72-1.33-1.57-1.77-2.56-.44-.98-.66-2.06-.66-3.24,0-1.47,.42-3.75,1.25-6.83,.84-3.08,1.99-6.72,3.47-10.92,1.48-4.2,3.25-8.82,5.32-13.87,2.07-5.05,4.29-10.22,6.66-15.51,0-.39-.2-.55-.59-.47-.3,.06-1.06,.61-2.3,1.64-1.24,1.04-2.39,2.06-3.48,3.07-3.55,3.39-7.12,7.42-10.72,12.1-3.59,4.68-7.08,9.72-10.47,15.14-3.39,5.41-6.58,11.07-9.56,16.97-2.99,5.9-5.56,11.73-7.71,17.49-.29,.76-.73,1.52-1.32,2.26-.59,.74-1.08,1.16-1.47,1.27-.29,.08-.71-.16-1.25-.71-.54-.55-1.03-1.28-1.47-2.19-.44-.92-.86-1.86-1.24-2.84-.39-.98-.59-1.86-.59-2.64Z"/>
    <path class="cls-14" d="M466.78,107.5c0-.88,.07-2,.22-3.35,.15-1.35,.42-3.17,.82-5.44,.4-2.27,.92-5.04,1.56-8.29,.64-3.25,1.46-7.16,2.46-11.74,.2-1.01,.65-2.66,1.34-4.93,.69-2.27,1.61-4.7,2.76-7.28,1.14-2.58,2.53-5.13,4.17-7.63,1.64-2.5,3.6-4.46,5.89-5.87,1.69,.15,3.93,.85,6.72,2.09,2.79,1.25,5.18,3.18,7.17,5.78-2.29,2.84-4.21,5.65-5.75,8.4-1.55,2.76-2.94,5.6-4.18,8.52-1.25,2.92-2.39,5.93-3.43,9.03-1.04,3.1-2.21,6.36-3.51,9.79-1.1,2.91-2.09,5.88-2.98,8.92-.89,3.03-1.44,5.69-1.49,7.81-.04,1.73-.02,3.03-.07,3.77-.05,.74-.32,1.15-.82,1.23-.4,.06-1.19-.06-2.38-.37-1.19-.31-2.41-.88-3.65-1.71-1.24-.83-2.36-1.95-3.35-3.36-.99-1.41-1.49-3.19-1.49-5.35Zm28.48-68.19c0-.59,.15-1.49,.45-2.71-.5-.43-.92-1.11-1.27-2.04-.35-.93-.52-1.8-.52-2.58,0-.88,.12-2.1,.37-3.66,.25-1.55,.57-3.25,.97-5.07,.4-1.82,.9-3.73,1.49-5.72,.6-1.99,1.2-3.81,1.79-5.46,1.2-.15,2.67-.02,4.41,.41,1.74,.43,3.51,1.05,5.31,1.88s3.44,1.77,4.94,2.84c1.5,1.07,2.64,2.1,3.44,3.1-1.1,1.2-2.55,2.85-4.34,4.96-1.8,2.11-3.54,4.33-5.24,6.64-1.7,2.31-3.24,4.49-4.64,6.52-1.4,2.04-2.29,3.48-2.69,4.31-1.2-.05-2.24-.43-3.14-1.15-.9-.72-1.34-1.47-1.34-2.26Z"/>
    <path class="cls-14" d="M528.34,38.01c2.6,.55,5.05,2.09,7.35,4.6,2.3,2.51,4,5.36,5.1,8.52-1.1,2.74-2.8,6.06-5.1,9.98-2.3,3.92-4.6,7.93-6.9,12.01-2.3,4.09-4.37,7.97-6.22,11.64-1.85,3.67-2.92,6.65-3.22,8.94,1.6-1.83,3.37-3.95,5.32-6.34,1.95-2.4,3.85-4.78,5.7-7.15,1.85-2.37,3.57-4.53,5.17-6.48,1.6-1.95,2.85-3.4,3.75-4.35,1.9-2.11,4.15-4.56,6.75-7.35,2.6-2.78,5.33-5.42,8.18-7.9,2.85-2.48,5.73-4.6,8.64-6.36,2.9-1.76,5.56-2.69,7.96-2.78,2.6-.1,4.79,.68,6.54,2.35,1.75,1.66,3.13,3.42,4.13,5.26,0,.2-.38,.48-1.13,.84-.75,.37-1.91,1.36-3.23,2.97-1.41,1.72-2.98,4.3-4.73,7.46-1.75,3.16-3.46,6.57-5.11,10.23-1.65,3.66-3.03,7.39-4.13,11.17-1.1,3.79-1.65,7.21-1.65,10.25,0,2.46,.33,4.01,.98,4.67,.65,.65,1.58,.95,2.78,.9,1.1-.05,2.25-.35,3.46-.89,1.2-.54,2.33-.96,2.86-.85,.33,.07,.73,.59,.98,1.22,.25,.63,.38,1.19,.38,1.68-.8,.72-1.75,1.44-2.86,2.17-1.1,.73-2.25,1.42-3.46,2.06-1.2,.64-2.38,1.19-3.53,1.64-1.15,.45-2.18,.7-3.08,.75-2.91,.15-5.28-.13-7.13-.85-1.85-.72-3.3-1.73-4.35-3.04-1.05-1.3-1.78-2.9-2.18-4.79-.4-1.89-.6-3.91-.6-6.08,0-1.18,.1-2.51,.3-4,.2-1.49,.6-3.26,1.2-5.31,.6-2.05,1.45-4.52,2.55-7.39,1.1-2.87,2.5-6.32,4.2-10.36-.2,.01-1.55,.78-4.05,2.32-2.5,1.54-5.2,3.84-8.11,6.9-4.7,4.77-8.93,9.5-12.67,14.16-3.75,4.66-7.57,9.84-11.46,15.55-2.2,3.27-4.12,6.06-5.76,8.35-1.65,2.29-3.07,3.86-4.26,4.68-2.09-.94-3.64-2.4-4.64-4.39-1-1.99-2.02-4.29-2.24-6.28-.18-1.65,.27-4.26,.82-7.18,.55-2.91,1.3-6.18,2.24-9.78,.95-3.6,2.12-7.4,3.51-11.4,1.4-3.99,2.94-8,4.64-12.02,3.79-9.06,7.26-16.2,10.41-21.42,3.15-5.22,5.12-8.05,5.92-8.52Z"/>
    <path class="cls-14" d="M557,151.3c0-.59,.2-1.14,.6-1.66,.4-.51,.85-1.03,1.35-1.55,1.2,1.02,2.23,1.8,3.08,2.35,.85,.55,1.65,1,2.4,1.36,.75,.36,1.53,.57,2.33,.63,.8,.06,1.75,.07,2.85,.03,5.21-.21,10.17-1.72,14.88-4.53,4.71-2.81,9.15-6.78,13.31-11.92,4.16-5.14,7.95-11.38,11.35-18.72,3.41-7.35,6.41-15.66,9.02-24.95-1.2,1.16-2.68,2.44-4.44,3.84-1.76,1.4-3.59,2.74-5.49,4.01-1.91,1.27-3.78,2.44-5.64,3.53-1.86,1.09-3.44,1.88-4.74,2.38-1.71-.28-3.29-.98-4.74-2.09-1.45-1.11-2.73-2.49-3.83-4.14-1.1-1.65-1.95-3.52-2.56-5.63-.6-2.1-.9-4.33-.9-6.69,0-3.83,.73-7.78,2.18-11.83,1.45-4.05,3.38-8.04,5.79-11.95,2.4-3.91,5.24-7.59,8.5-11.04,3.26-3.44,6.72-6.43,10.38-8.95,3.66-2.52,7.37-4.49,11.13-5.93,3.76-1.43,7.44-2.08,11.05-1.95,3.51,.13,6.14,.96,7.89,2.46,1.75,1.5,3.03,4,3.83,7.48-1.1-.65-2.51-1.01-4.21-1.09-2.4-.11-5.19,.71-8.34,2.46-3.16,1.75-6.36,4.09-9.62,7.01-3.26,2.92-6.49,6.3-9.7,10.14-3.21,3.84-6.04,7.78-8.5,11.8-2.46,4.02-4.46,7.96-6.02,11.8-1.55,3.84-2.33,7.29-2.33,10.33,0,.69,.05,1.11,.15,1.25,.1,.15,.25,.22,.45,.22,.9,0,2.13-.5,3.68-1.49,1.55-.98,3.31-2.24,5.26-3.75,1.95-1.51,3.99-3.27,6.09-5.26,2.1-1.99,4.11-4,6.01-6.03,4.31-4.64,8.24-9.81,11.8-15.54,3.56-5.73,6.39-11.29,8.49-16.7,2.7,.31,5.11,.87,7.21,1.67,2.1,.8,3.55,1.62,4.36,2.45-3.4,7.47-6.13,13.77-8.19,18.88-2.05,5.11-3.83,9.65-5.33,13.62-2.71,6.96-5.24,13.34-7.59,19.11-2.35,5.77-4.76,11.11-7.22,16.02-2.46,4.9-5.11,9.47-7.97,13.71-2.86,4.24-6.09,8.31-9.7,12.23-1.71,1.86-3.64,3.51-5.79,4.95-2.15,1.43-4.36,2.66-6.62,3.67-2.25,1.01-4.46,1.79-6.62,2.32-2.16,.54-4.13,.83-5.94,.88-2.41,.07-4.86-.12-7.37-.57-2.5-.45-4.83-1.09-6.99-1.92-2.15-.84-4.03-1.82-5.63-2.97-1.6-1.14-2.75-2.38-3.45-3.72Z"/>
    <path class="cls-14" d="M725.37,25.59c-3.98-.58-7.04-2.11-9.18-4.61-2.14-2.5-3.21-5.33-3.21-8.48,0-.79,.12-1.71,.37-2.76,.25-1.05,.57-1.94,.97-2.68,1.29,.51,3.21,1.01,5.75,1.5,2.54,.5,5.5,.99,8.88,1.5,5.07,.76,10.8,1.68,17.2,2.78s12.5,1.93,18.34,2.48c5.83,.54,10.96,1.04,15.39,1.46,4.43,.42,7.28,.79,8.56,1.08,3.64,.82,6.27,2.79,7.89,5.87,1.62,3.09,2.82,6.98,3.61,11.69-2.55-.91-5.08-1.65-7.59-2.23-2.51-.58-4.65-1.06-6.42-1.45-3.15-.7-6.33-1.39-9.53-2.06-3.21-.67-6.44-1.14-9.7-1.39-1.38,2.58-2.91,5.66-4.6,9.23-1.68,3.57-3.34,7.32-4.97,11.25-1.63,3.93-3.19,7.86-4.68,11.78-1.49,3.92-2.77,7.46-3.86,10.62-2.18,6.12-4.09,11.81-5.72,17.05-1.64,5.24-3.08,10.16-4.32,14.73-1.24,4.58-2.31,8.96-3.2,13.16-.89,4.19-1.69,8.3-2.38,12.33-6.66-2.02-12.23-6.93-16.71-14.81,.8-2.94,1.77-6.12,2.91-9.55,1.14-3.43,2.49-7.32,4.03-11.66,1.54-4.35,3.36-9.26,5.44-14.75,2.09-5.48,4.47-11.7,7.15-18.64,.99-2.59,2.03-5.3,3.13-8.12,1.09-2.82,2.16-5.61,3.2-8.39,1.04-2.77,1.98-5.46,2.83-8.07,.84-2.61,1.56-4.99,2.16-7.15-4.16-.23-8.11-.46-11.83-.71-3.72-.25-7.03-.57-9.91-1Z"/>
    <path class="cls-14" d="M905.67,117.11c-1.52-.59-3.38-.34-5.57,.75-2.19,1.09-4.55,2.67-7.08,4.74-2.53,2.07-5.16,4.44-7.89,7.11-2.73,2.67-5.37,5.36-7.91,8.07-2.54,2.71-4.92,5.28-7.14,7.68-2.22,2.41-4.09,4.3-5.64,5.66-2.12-1.58-3.96-3.47-5.5-5.69-1.55-2.21-2.66-4.7-3.33-7.47,.48-2.89,1.16-5.84,2.03-8.85,.87-3.01,2.01-6.05,3.4-9.13,1.4-3.08,3.14-6.22,5.21-9.41,2.07-3.19,4.6-6.44,7.58-9.75-1.44-.49-3.42-.15-5.92,1.04-2.5,1.19-5.2,2.91-8.1,5.18-2.9,2.27-5.89,4.92-8.99,7.94-3.1,3.03-6.02,6.06-8.72,9.09-3.59,4.03-6.58,7.67-8.97,10.83-2.38,3.16-4.11,4.94-5.18,5.33-2.54-2.57-4.29-5.06-5.27-7.49-.97-2.42-2.03-5.29-2.2-7.81-.14-2.08,.46-5.18,1.1-8.55,.63-3.36,1.54-6.76,2.71-10.17,2.24-6.56,5.14-12.88,8.69-18.95,3.55-6.06,6.98-11.55,10.28-16.46,2.72,1.4,5.17,3.08,7.34,5.03,2.18,1.95,4.47,4.53,6.89,7.76-.97,2.74-2.46,5.48-4.5,8.24-2.03,2.76-4.16,5.66-6.39,8.72-2.23,3.06-4.27,6.29-6.11,9.67-1.85,3.39-3.06,7.02-3.64,10.87,2.72-3.14,5.95-6.71,9.68-10.69,3.73-3.98,7.56-7.61,11.47-10.88,3.91-3.27,7.79-5.84,11.64-7.69,3.85-1.86,7.31-2.24,10.38-1.17,1.15,.4,2.4,1.04,3.74,1.91,1.34,.87,2.59,1.8,3.73,2.81,1.15,1,2.1,1.92,2.87,2.73,.76,.82,1.19,1.39,1.29,1.72-.48,1.79-1.6,4.06-3.37,6.81-1.77,2.75-3.66,5.64-5.67,8.66-2.01,3.02-3.88,5.98-5.61,8.87-1.73,2.89-2.74,5.32-3.03,7.29,4.71-4.98,9.12-9.4,13.24-13.27,4.11-3.88,7.98-7.04,11.6-9.51,3.62-2.47,6.97-4.13,10.06-4.98,3.08-.86,6-.73,8.74,.38,1.89,.76,3.66,2,5.32,3.72,1.65,1.71,2.81,3.69,3.47,5.93-.85,2.59-2.24,5.55-4.18,8.88-1.94,3.33-3.9,6.88-5.89,10.65-1.99,3.77-3.77,7.56-5.33,11.36-1.57,3.8-2.35,7.48-2.35,11.02,0,2.06,.29,3.53,.85,4.39,.57,.86,1.38,1.5,2.42,1.91,1.14,.45,2.2,.65,3.2,.61,.99-.04,1.73,.03,2.2,.22,.57,.62,.9,1.25,.99,1.88,.09,.63,.14,1.19,.14,1.68-1.89,.8-3.83,1.33-5.82,1.57-1.99,.24-4.22-.12-6.69-1.07-2.28-.88-4.16-1.99-5.64-3.33-1.48-1.34-2.69-2.88-3.65-4.61-.95-1.73-1.62-3.55-2-5.45-.38-1.91-.57-3.89-.57-5.95,0-3.33,.43-6.49,1.29-9.46,.86-2.97,1.88-5.72,3.07-8.27,1.19-2.54,2.46-4.86,3.79-6.95,1.33-2.09,2.47-3.98,3.42-5.68Z"/>
    <path class="cls-14" d="M984.21,136.34c-.37,5.91-1.38,10.62-3.03,14.16-1.66,3.54-4.03,6.18-7.12,7.95-3.09,1.77-6.86,2.91-11.31,3.45-4.45,.54-9.67,.67-15.65,.44,0,.59-.02,1.19-.07,1.81-.05,.62-.07,1.27-.07,1.96,0,1.28,.09,2.65,.28,4.11,.19,1.46,.51,2.88,.98,4.27,.47,1.39,1.12,2.64,1.96,3.76,.84,1.12,1.91,1.97,3.22,2.57,2.52,1.16,4.98,1.71,7.4,1.67,2.41-.04,4.71-.4,6.89-1.07,2.17-.67,4.21-1.55,6.1-2.63,1.89-1.08,3.57-2.09,5.05-3.02,.92,1.34,1.7,2.57,2.35,3.68-4.14,3.81-8.68,6.45-13.63,7.94-4.95,1.49-9.67,1.76-14.14,.79-6.43-3.74-11.47-8.44-15.08-14.19-3.61-5.75-5.42-11.55-5.42-17.45,0-4.03,.54-7.9,1.62-11.61,1.08-3.71,2.58-7.09,4.51-10.13,1.92-3.04,4.17-5.71,6.74-8,2.57-2.29,5.33-4.04,8.26-5.24,2.93-1.2,5.96-1.81,9.07-1.8,3.11,0,6.43,.68,9.23,2.24,4.15,2.31,8.21,7.45,11.88,14.34Zm-9.53,.08c-2.49-.84-5.08-1.02-7.76-.54-2.69,.48-5.21,1.64-7.58,3.47-2.37,1.84-4.54,4.28-6.49,7.31-1.96,3.03-3.5,6.56-4.62,10.57,7.47-.56,13.65-2.49,18.56-5.87,4.91-3.39,7.53-8.34,7.9-14.94Z"/>
  </g>
  <g>
    <path class="cls-12" d="M347.72,217.23v-.86s.07-.2,.22-.47,.22-.42,.22-.47c.12-.29,.23-.61,.32-.95s.21-.68,.34-.99,.31-.58,.54-.79,.53-.32,.92-.32h.36c.07,0,.17,.11,.29,.32s.22,.38,.29,.5c.31,.58,.65,1.23,1.03,1.96s.8,1.41,1.3,2.03,1.06,1.15,1.69,1.58,1.37,.65,2.21,.65c.31,0,.71-.11,1.21-.34s.97-.5,1.44-.81,.88-.64,1.24-.99,.58-.65,.65-.92c.1-.29,.17-.55,.23-.79s.09-.49,.09-.76c0-.22-.02-.46-.07-.72s-.13-.56-.25-.9c0-.29-.25-.68-.74-1.19s-1.06-1-1.71-1.49-1.27-.94-1.87-1.35-1.01-.67-1.22-.79c-.26-.1-.53-.15-.79-.16s-.49-.1-.68-.27c-.02-.05-.08-.12-.18-.22s-.2-.2-.32-.31-.23-.21-.32-.31-.16-.14-.18-.14c-.05-.1-.2-.23-.45-.41s-.44-.32-.56-.41l-.47-.25c-.07-.07-.2-.2-.4-.38s-.4-.38-.61-.59l-.61-.61-.4-.4c-.14-.41-.28-.82-.4-1.22s-.24-.83-.36-1.26c-.02-.12-.06-.29-.11-.5s-.1-.43-.16-.63-.11-.38-.14-.54-.05-.25-.05-.27c-.05-.65,0-1.33,.14-2.03s.36-1.39,.65-2.03,.64-1.25,1.06-1.82,.88-1.03,1.39-1.39c.02-.05,.15-.1,.38-.16s.37-.11,.41-.16c.36-.14,.76-.37,1.19-.67s.88-.6,1.33-.9,.91-.56,1.37-.77,.89-.32,1.3-.32,.87,.09,1.39,.27,.97,.33,1.35,.45c.65,.22,1.27,.42,1.85,.61s1.12,.44,1.58,.76,.84,.71,1.12,1.19,.41,1.1,.41,1.87c0,.26-.03,.64-.09,1.13s-.16,.97-.31,1.44-.34,.88-.59,1.22-.58,.52-.99,.52h-.25s-.13-.22-.25-.5-.2-.46-.25-.5c-.34-.6-.7-1.18-1.1-1.73s-.84-1.04-1.33-1.46-1.03-.75-1.6-.99-1.22-.36-1.94-.36c-.22,0-.46,.01-.74,.04s-.53,.11-.77,.25c-.82,.62-1.43,1.28-1.85,1.98s-.63,1.57-.63,2.63c0,.58,.13,1.1,.4,1.57s.6,.88,1.01,1.24,.86,.67,1.37,.94,1,.47,1.48,.61c.02,.02,.11,.05,.25,.07s.31,.05,.49,.07,.34,.05,.49,.07,.23,.04,.25,.04c.05,0,.13,.04,.25,.13s.2,.13,.25,.13c.53,.38,1.07,.76,1.64,1.13s1.12,.76,1.66,1.15,1.06,.82,1.57,1.28,.96,.95,1.37,1.48c.02,.02,.07,.11,.14,.25s.15,.31,.23,.49l.25,.54c.08,.18,.15,.32,.2,.41,0,.05,0,.14,.02,.29s.03,.3,.05,.47,.05,.33,.07,.49,.06,.25,.11,.27c.1,.29,.21,.55,.34,.77s.26,.45,.4,.67,.25,.43,.34,.65,.14,.47,.14,.76c0,.77-.16,1.48-.49,2.12s-.65,1.33-.99,2.05c-.34,.5-.75,1-1.24,1.48s-.92,.88-1.28,1.19c-.96,.84-2.06,1.43-3.31,1.78s-2.45,.52-3.6,.52c-.86,0-1.74-.05-2.63-.14s-1.7-.31-2.45-.65c-.05-.02-.14-.08-.29-.16s-.31-.18-.49-.29-.35-.21-.5-.31-.26-.16-.31-.18c-.48-.29-.9-.55-1.26-.77s-.67-.49-.92-.77-.44-.64-.56-1.04-.18-.94-.18-1.58Z"/>
    <path class="cls-12" d="M392.29,220.36c0-.31,.13-.56,.4-.74s.55-.34,.85-.49,.58-.29,.85-.45,.4-.37,.4-.63c0-.41-.14-.88-.41-1.4s-.56-.96-.85-1.3c-.07-.07-.23-.26-.47-.56s-.5-.62-.77-.95-.53-.66-.77-.97-.4-.5-.47-.58c-.48-.58-.97-1.07-1.48-1.48s-1.03-.91-1.58-1.51c-.02,0-.09,0-.2-.02s-.19-.02-.23-.02c-.31,0-.58,.08-.79,.25s-.4,.38-.54,.65-.25,.55-.32,.85-.12,.57-.14,.81c-.02,.14-.05,.38-.09,.72s-.08,.7-.13,1.1-.1,.77-.16,1.13l-.13,.76v.83s.04,.09,.13,.2,.18,.24,.29,.4,.23,.32,.36,.49,.23,.3,.31,.4c.17,.24,.39,.44,.67,.59s.55,.32,.83,.5,.51,.39,.7,.63,.29,.54,.29,.9c0,.31-.1,.57-.31,.77s-.45,.36-.74,.47-.59,.19-.9,.23-.58,.07-.79,.07h-6.55c-.07,0-.24,.01-.5,.04s-.55,.05-.86,.09-.6,.07-.86,.11-.43,.07-.5,.09h-.58c-.34,0-.7-.13-1.08-.4s-.58-.59-.58-.97v-.18c0-.07,.04-.17,.11-.31s.15-.28,.23-.45,.16-.32,.23-.45,.12-.23,.14-.31c.1-.19,.24-.31,.43-.36s.4-.08,.61-.09,.43-.03,.65-.05,.42-.11,.61-.25c.41-.34,.71-.73,.9-1.17s.46-.88,.79-1.31c0-.31,.02-.8,.05-1.46s.07-1.41,.11-2.25,.07-1.72,.11-2.64,.07-1.81,.11-2.64,.07-1.59,.09-2.25,.04-1.15,.04-1.46c0-.02,0-.16,.02-.4s.02-.51,.02-.81,0-.61,.02-.92,.02-.55,.02-.72c0-.12,0-.32-.02-.59s-.02-.57-.02-.88,0-.6-.02-.86-.02-.44-.02-.54c-.1-.38-.19-.79-.29-1.21s-.25-.79-.47-1.1c-.26-.36-.55-.6-.86-.72s-.64-.23-.97-.32-.67-.23-.99-.41-.63-.52-.92-1.03c-.19-.38-.29-.76-.29-1.12,0-.41,.11-.65,.34-.74s.51-.13,.85-.13c.74,0,1.49,.04,2.23,.11s1.48,.14,2.21,.22,1.46,.14,2.19,.2,1.48,.07,2.25,.02c.14,.05,.36,.16,.65,.32s.56,.37,.83,.59,.5,.46,.7,.7,.31,.44,.31,.61c0,.19-.09,.37-.27,.52s-.39,.32-.63,.49-.47,.35-.7,.54-.38,.41-.45,.65v5.72c.02,.26,.05,.54,.07,.83s.08,.55,.18,.77,.22,.41,.38,.56,.38,.22,.67,.22c.07,0,.16-.01,.27-.04s.19-.04,.23-.04c.02-.02,.11-.1,.27-.22s.32-.25,.49-.4,.32-.28,.47-.4,.24-.19,.29-.22c.1-.12,.28-.28,.54-.47s.41-.31,.43-.36c.05,0,.17-.02,.38-.07s.31-.11,.31-.18c.36-.24,.71-.54,1.04-.9s.64-.74,.92-1.15,.51-.84,.7-1.3,.32-.91,.4-1.37c-.07-.07-.16-.22-.25-.43s-.2-.44-.31-.68-.2-.47-.29-.68-.13-.37-.13-.47c-.02-.12-.05-.23-.07-.32-.05-.24-.07-.42-.07-.54s.02-.3,.07-.54c.02-.1,.05-.2,.07-.32,.02-.05,.12-.17,.29-.38s.31-.33,.43-.38c.07-.02,.2-.06,.4-.11l.65-.16c.24-.06,.47-.11,.7-.16s.4-.07,.52-.07h2.73s.13-.01,.25-.04,.25-.04,.38-.05,.26-.03,.38-.05,.19-.04,.22-.04c.12-.02,.32-.05,.61-.09s.59-.07,.9-.09,.61-.05,.88-.07,.47-.04,.59-.04h1.08c.43,0,.88,.04,1.33,.11s.82,.28,1.08,.61c.07,.1,.19,.28,.34,.54s.23,.42,.23,.47c0,.1-.08,.27-.23,.52s-.27,.43-.34,.52c-.07,.05-.21,.14-.41,.29s-.43,.3-.67,.47-.47,.32-.68,.45-.37,.21-.47,.23c-.05,.05-.13,.08-.25,.11s-.25,.05-.38,.07-.26,.04-.4,.05-.21,.02-.23,.02c-.6,.17-1.22,.4-1.85,.7s-1.16,.67-1.57,1.1c-.1,.05-.25,.2-.45,.47s-.32,.42-.34,.47c-.26,.31-.56,.56-.9,.74s-.68,.35-1.04,.52-.7,.35-1.03,.54-.58,.44-.77,.76c-.05,.05-.12,.17-.22,.36s-.2,.4-.31,.63-.21,.44-.31,.63-.16,.3-.18,.32c-.05,.05-.14,.19-.29,.41s-.23,.35-.25,.38v.68c0,.62,.11,1.18,.32,1.67s.49,.95,.83,1.37,.71,.83,1.12,1.22,.82,.82,1.22,1.28c.05,.05,.14,.17,.27,.38s.22,.33,.27,.38c.14,.19,.34,.44,.58,.74s.48,.59,.72,.88l.63,.76c.18,.22,.28,.34,.31,.36,.53,.55,1.1,1.05,1.73,1.49l1.87,1.33c.62,.44,1.24,.9,1.84,1.37s1.14,1,1.62,1.6c.12,.12,.19,.25,.22,.38s.04,.28,.04,.45v.79c0,.17-.01,.32-.04,.45s-.1,.27-.22,.41c-.07,.05-.17,.13-.29,.25l-.38,.38-.38,.38c-.12,.12-.19,.2-.22,.25h-.36c-.84,0-1.68-.08-2.52-.25s-1.64-.25-2.41-.25h-3.49c-.24-.02-.58-.07-1.03-.14s-.88-.19-1.31-.36-.81-.37-1.13-.61-.49-.53-.49-.86Z"/>
    <path class="cls-12" d="M415.16,222.64c-.29,.08-.46,.15-.5,.2h-.58c-.48,0-.92-.1-1.31-.31s-.59-.58-.59-1.13v-.32s.17-.14,.38-.27,.33-.2,.38-.2c.02-.02,.08-.09,.18-.2s.2-.22,.31-.32,.2-.21,.29-.31,.14-.16,.16-.18c.05-.02,.15-.05,.31-.07s.32-.05,.49-.07,.32-.05,.47-.07,.24-.04,.29-.04c.82-.24,1.48-.66,1.98-1.26v-6.01s.05-.1,.09-.23,.07-.27,.11-.41,.07-.28,.09-.4,.04-.19,.04-.22v-1.55c0-.6-.05-1.18-.16-1.75s-.16-1.12-.16-1.67c0-1.22,.17-2.41,.5-3.56v-6.22s-.02-.13-.05-.25-.08-.2-.13-.25c-.07-.07-.16-.16-.27-.25s-.22-.2-.32-.31l-.31-.31-.18-.18s-.11-.05-.25-.09-.3-.08-.47-.13-.4-.12-.68-.22c-.38-.12-.69-.29-.92-.5s-.45-.47-.67-.76v-.18c0-.12,.06-.22,.18-.29s.25-.13,.4-.16,.28-.07,.41-.09,.22-.06,.27-.11c.1-.02,.3-.09,.61-.2s.53-.19,.65-.23h6.51s.11-.01,.27-.04,.31-.05,.47-.09,.31-.07,.45-.09,.23-.04,.25-.04,.11,0,.27-.02,.34-.02,.54-.02h2.18c.19,0,.36,0,.5,.02s.23,.02,.25,.02c.22,0,.47,0,.77,.02s.58,.06,.85,.14,.49,.22,.68,.4,.29,.44,.29,.77c0,.36-.1,.61-.29,.76s-.42,.24-.68,.29-.55,.07-.85,.05-.56,.02-.77,.09c-.02,0-.08,.02-.16,.07s-.18,.11-.29,.18-.21,.13-.31,.18-.16,.07-.18,.07c-.38,.14-.77,.29-1.17,.45s-.59,.47-.59,.95c0,.34,.04,.64,.11,.92s.11,.57,.11,.88v.25s-.04,.22-.11,.5-.11,.46-.11,.5v2.05s-.03,.13-.09,.23-.11,.17-.16,.2c-.14,1.66-.23,3.3-.25,4.93s-.12,3.27-.29,4.93c0,.14-.06,.41-.18,.79s-.2,.67-.25,.86v4.75s.11,.1,.18,.14c.1,.07,.18,.11,.25,.11,.53,.22,1.1,.37,1.71,.47s1.23,.16,1.85,.2,1.23,.05,1.82,.05,1.13,.02,1.64,.07c.02,0,.1,.01,.23,.04s.27,.04,.41,.05,.28,.03,.41,.05,.22,.04,.27,.04h.43c.6-.14,1.14-.28,1.62-.41s.96-.4,1.44-.81c.43-.36,.85-.74,1.24-1.13s.8-.79,1.22-1.17,.85-.74,1.3-1.08,.93-.62,1.46-.86h.25c.7,.22,1.16,.55,1.39,.99s.34,1.01,.34,1.71v.54c-.02,.1-.1,.28-.23,.54s-.22,.42-.27,.47c-.07,.29-.13,.62-.18,.99s-.12,.74-.22,1.12-.23,.73-.4,1.06-.4,.62-.68,.86c-.1,.07-.22,.16-.38,.25s-.32,.2-.49,.31-.31,.2-.43,.27-.19,.11-.22,.11c-.02,.05-.18,.07-.47,.07-.26,0-.53-.01-.81-.04s-.45-.04-.52-.04c-.02,.07-.17,.19-.43,.34s-.44,.23-.54,.23c-.46,.02-.97-.04-1.53-.2s-1.04-.34-1.42-.56h-9.03c-.1,.05-.3,.09-.61,.13s-.52,.05-.61,.05c-.05,.05-.28,.07-.68,.07-.34,0-.71-.01-1.12-.04s-.64-.04-.68-.04c-.05,.05-.15,.11-.31,.2s-.32,.17-.49,.27-.32,.18-.47,.25-.23,.11-.25,.11c-.05,0-.18-.04-.4-.13s-.35-.13-.4-.13c-.05-.02-.2-.05-.45-.07s-.52-.05-.81-.07-.55-.05-.79-.07-.4-.04-.47-.04c0-.02-.05-.05-.16-.09l-.32-.11c-.11-.04-.27-.08-.49-.13-.05,0-.22,.04-.5,.13Z"/>
    <path class="cls-12" d="M448.44,221.33c0-.22,.12-.49,.36-.81s.46-.55,.65-.67c.1-.02,.27-.06,.52-.11s.52-.11,.81-.18,.56-.13,.83-.18,.46-.08,.58-.11c.48-.05,.83-.14,1.06-.29s.39-.46,.49-.94c.07-.55,.13-1.16,.16-1.82s.05-1.28,.05-1.85v-.5c0-.07-.04-.22-.11-.43s-.11-.35-.11-.4c-.02-.1-.05-.31-.07-.65s-.05-.7-.07-1.1-.05-.77-.07-1.12-.05-.56-.07-.63c0-.02-.04-.15-.13-.38s-.13-.37-.13-.41v-.18c.36-2.73,.54-5.43,.54-8.1,0-.7-.05-1.38-.14-2.05s-.14-1.36-.14-2.05v-.58c-.07-.05-.2-.13-.4-.25s-.31-.2-.36-.25-.13-.14-.25-.27-.2-.22-.25-.27c-.36-.17-.77-.28-1.24-.34s-.91-.14-1.33-.25-.77-.28-1.04-.52-.41-.62-.41-1.15v-.43c0-.1,.01-.18,.04-.25,.05-.1,.2-.21,.45-.34s.44-.2,.56-.2h7.48c.1,.1,.27,.2,.52,.32s.4,.19,.45,.22h.25c.82,0,1.61-.13,2.37-.4s1.56-.4,2.37-.4h1.04c.55,.05,1.15,.15,1.8,.31s1.26,.23,1.84,.23c.26,0,.53-.05,.79-.14s.55-.14,.86-.14h.18c.22,.07,.51,.15,.88,.23s.75,.19,1.13,.31,.74,.26,1.06,.43,.55,.36,.67,.58c.22,.38,.44,.79,.68,1.22s.46,.88,.67,1.33,.37,.92,.5,1.4,.2,.95,.2,1.4c0,.26-.07,.53-.2,.79s-.33,.46-.59,.58c-.07,.05-.23,.07-.49,.07h-.52c-.43,0-.76-.02-.97-.07s-.4-.14-.54-.27-.28-.3-.41-.5-.32-.45-.56-.74c-.02-.05-.11-.14-.25-.29s-.3-.29-.47-.45-.33-.31-.49-.45-.26-.24-.31-.29c-.02-.05-.06-.17-.11-.38s-.07-.33-.07-.38c-.14-.36-.35-.61-.63-.76s-.58-.25-.92-.32-.68-.14-1.03-.22-.67-.22-.95-.43h-3.81c-.31,0-.58,.11-.81,.32s-.45,.43-.67,.65c-.5,.62-.8,1.34-.88,2.14s-.13,1.59-.13,2.36c0,.84,.01,1.62,.04,2.34s.12,1.51,.29,2.37c.02,.34,.13,.55,.31,.63s.39,.13,.63,.13h.54s.16-.03,.34-.09,.29-.09,.34-.09c.07-.02,.23-.05,.49-.09s.52-.07,.79-.09,.54-.04,.79-.05,.41-.02,.49-.02c.34-.07,.61-.18,.81-.32s.37-.32,.49-.52,.23-.43,.32-.67,.22-.48,.36-.72c.12-.24,.25-.51,.4-.81s.31-.58,.49-.85,.39-.49,.63-.68,.53-.29,.86-.29c.31,0,.53,.1,.65,.31s.19,.47,.22,.81c.12,.84,.19,1.57,.22,2.19s.04,1.34,.04,2.16v1.33c0,.14-.01,.39-.04,.74s-.05,.7-.07,1.06-.05,.7-.07,1.03-.05,.53-.07,.63c0,.12-.04,.31-.13,.58s-.13,.43-.13,.5v1.19c0,.19,0,.38-.02,.58s-.07,.35-.16,.47c-.1,.07-.27,.2-.52,.4s-.43,.31-.52,.36h-.61c-.12,0-.22,.01-.31,.04s-.15,.04-.2,.04c-.14,0-.25-.08-.32-.25-.1-.1-.2-.27-.32-.52s-.19-.44-.22-.56v-2.99c-.02-.31-.12-.57-.29-.77s-.38-.35-.65-.45-.56-.16-.88-.2-.64-.05-.95-.05h-2.05c-.24,0-.47,.01-.7,.04s-.44,.08-.63,.16-.35,.22-.47,.4-.18,.41-.18,.7v.36c.02,.07,.05,.26,.07,.58s.05,.64,.09,.97,.07,.65,.09,.95,.05,.49,.07,.56v3.31s.02,.09,.05,.2,.08,.24,.13,.4l.14,.47c.05,.16,.1,.28,.14,.38,.12,.29,.27,.5,.45,.63s.38,.22,.59,.27,.45,.07,.7,.07,.51,.02,.77,.07c.41,.05,.82,.13,1.22,.25s.85,.18,1.33,.18h1.12c.74,0,1.51-.02,2.28-.07s1.53-.17,2.25-.36c.05,0,.14-.04,.29-.13s.24-.13,.29-.13c.05-.07,.16-.17,.32-.31s.34-.28,.52-.43,.35-.31,.5-.47,.26-.27,.31-.34c.07-.05,.2-.17,.4-.36l.63-.63c.23-.23,.44-.43,.63-.61s.32-.29,.4-.34c.12-.12,.25-.2,.38-.23s.28-.05,.45-.05h.5c.26,0,.55,.01,.86,.04s.56,.11,.76,.25c.48,.34,.9,.69,1.26,1.06s.54,.86,.54,1.46v.43c-.02,.1-.07,.25-.13,.45s-.13,.41-.22,.63-.17,.41-.25,.59-.14,.31-.16,.38c-.12,.19-.35,.41-.68,.67s-.6,.44-.79,.56c-.14,.07-.33,.17-.56,.29s-.45,.23-.67,.34-.41,.2-.58,.27-.26,.11-.29,.11h-20.98c-.34,.12-.68,.19-1.04,.22s-.73,.04-1.12,.04h-2.55c-.1,0-.25-.03-.45-.09s-.31-.11-.31-.16c-.05-.1-.14-.27-.29-.52s-.22-.41-.22-.49Z"/>
    <path class="cls-12" d="M485.2,221.08s.03-.14,.09-.34,.11-.33,.16-.38c.24-.53,.44-.87,.59-1.03s.32-.25,.49-.27,.36-.05,.58-.07,.49-.18,.83-.47c.02,0,.13-.07,.31-.2s.38-.29,.59-.47,.43-.36,.63-.54,.37-.33,.49-.45c0-.07,.05-.13,.14-.18,.05-.02,.08-.05,.11-.07,0-.12,0-.36,.02-.72s.02-.6,.02-.72c0-.94-.06-1.87-.18-2.81l-.36-2.81s-.01-.11-.04-.25-.05-.31-.07-.49-.05-.35-.07-.5-.04-.26-.04-.31c-.02-.02-.05-.06-.07-.11s-.04-.13-.04-.25c0-.07,.01-.13,.04-.18l.07-.14s.04-.14,.11-.27,.11-.22,.11-.27c.22-.72,.35-1.5,.41-2.34s.09-1.64,.09-2.41v-.25c-.1-.65-.17-1.28-.22-1.91s-.11-1.24-.18-1.84-.17-1.21-.29-1.82-.31-1.24-.58-1.89c-.1-.24-.26-.4-.49-.47s-.48-.13-.76-.16-.53-.09-.76-.16-.39-.23-.49-.47c-.02-.07-.06-.19-.11-.36s-.1-.34-.16-.52-.11-.35-.16-.52-.07-.29-.07-.36c.05-.12,.11-.25,.2-.38s.19-.25,.31-.34c.1,0,.29,0,.58-.02s.59-.02,.92-.02,.63,0,.92-.02,.49-.02,.61-.02c.19,0,.45,0,.77,.02s.64,.02,.95,.02,.59,0,.83,.02,.37,.02,.4,.02c.07,0,.2,.01,.38,.04s.38,.05,.59,.07,.42,.05,.61,.07,.35,.05,.47,.07c.05,0,.2,.04,.45,.13s.44,.13,.56,.13c.65,0,1.28-.1,1.91-.29s1.27-.29,1.94-.29c.41,0,.8,.1,1.19,.29s.78,.29,1.19,.29c.34,0,.65-.1,.95-.29s.64-.29,1.03-.29c.02,0,.07,0,.13,.02s.11,.02,.16,.02c.07,.02,.14,.04,.22,.04,.02,0,.14,.04,.36,.13s.35,.13,.4,.13c.34,.07,.69,.13,1.06,.18s.74,.11,1.12,.18,.73,.17,1.08,.31,.67,.32,.95,.56c.31,.24,.56,.47,.76,.7s.35,.46,.49,.7,.25,.49,.36,.76,.25,.54,.41,.83c.02,.05,.08,.12,.16,.22s.17,.2,.25,.31,.16,.21,.23,.31,.12,.16,.14,.18c.02,.07,.08,.2,.18,.4l.31,.61c.11,.22,.21,.41,.31,.59s.17,.31,.22,.38c.12,.34,.19,.64,.22,.92s.04,.56,.04,.85v1.66c0,.5-.03,1.03-.09,1.58s-.22,.96-.49,1.22c-.07,.12-.22,.29-.45,.52s-.47,.47-.72,.74-.5,.52-.76,.76-.44,.41-.56,.5c-.07,.1-.24,.24-.5,.43s-.43,.31-.5,.36c-1.66,.65-3.44,1.17-5.36,1.57s-3.78,.62-5.58,.67c-.77,.62-1.26,1.25-1.48,1.89s-.32,1.42-.32,2.36c0,.29,.02,.64,.05,1.04s.11,.82,.22,1.24,.24,.81,.4,1.17,.37,.62,.63,.79c.24,.19,.56,.33,.95,.41s.79,.19,1.17,.32,.71,.31,.97,.54,.4,.57,.4,1.03c0,.41-.11,.72-.32,.94s-.48,.37-.79,.47-.64,.16-.99,.2-.64,.08-.88,.13c-.07,0-.22,.04-.43,.13s-.35,.13-.4,.13h-.43c-.26,0-.48-.01-.65-.04s-.37-.1-.61-.22h-4.79c-.74,.34-1.57,.5-2.48,.5-.19,0-.47-.04-.83-.11s-.72-.19-1.08-.34-.67-.34-.94-.56-.4-.47-.4-.76Zm11.51-17.77c0,.29,.05,.6,.16,.94s.26,.65,.47,.94,.44,.54,.7,.76,.56,.35,.9,.4h1.26s.21,.04,.49,.13,.45,.13,.52,.13h.5s.11-.08,.25-.18,.3-.2,.47-.31,.32-.22,.47-.32,.24-.19,.29-.23c.6-.34,1.07-.64,1.4-.92s.61-.58,.81-.92,.35-.73,.45-1.19,.2-1.03,.32-1.73v-.36c0-.31-.05-.69-.16-1.13s-.25-.88-.43-1.31-.39-.84-.63-1.22-.49-.7-.76-.94l-.5-.25c-.65-.5-1.31-.96-1.98-1.37s-1.46-.61-2.37-.61h-.43c-.29,0-.52,.02-.68,.07s-.44,.2-.83,.47c-.05,.07-.17,.2-.38,.38s-.31,.28-.31,.31v5.76s.1,.17,.16,.36,.09,.34,.09,.43c0,.05-.04,.24-.13,.58s-.13,.56-.13,.68v.68Z"/>
    <path class="cls-12" d="M547.82,221.76c-.07-.1-.19-.31-.36-.63s-.35-.67-.54-1.04-.37-.73-.52-1.06-.26-.58-.31-.72c-.05-.02-.1-.14-.14-.34s-.1-.42-.16-.65-.11-.44-.14-.65-.05-.33-.05-.38c-.22-.72-.49-1.43-.83-2.12s-.66-1.39-.97-2.09c0-.05-.07-.22-.22-.5s-.22-.46-.22-.5c-.02-.05-.05-.16-.07-.32s-.05-.35-.07-.54-.05-.38-.07-.56-.04-.29-.04-.34c-.07-.19-.17-.41-.31-.67s-.28-.51-.43-.77-.31-.53-.45-.79-.26-.52-.36-.76c-.29-.74-.53-1.49-.74-2.25s-.46-1.52-.77-2.28c-.22-.5-.48-1-.79-1.48l-.94-1.44c0-.07-.03-.17-.09-.31s-.11-.22-.16-.27c0-.02-.02-.1-.07-.22s-.1-.25-.14-.4-.1-.28-.16-.4-.1-.19-.13-.22l-.18-.25c-.6-.38-1.09-.83-1.46-1.35s-.82-.98-1.35-1.39c-.38-.26-.73-.53-1.04-.79s-.47-.65-.47-1.15c0-.31,.08-.55,.23-.72s.35-.29,.58-.38,.47-.14,.74-.16,.5-.04,.72-.04c.07-.02,.22-.05,.45-.07s.47-.05,.74-.07,.52-.05,.76-.07,.42-.04,.54-.04c.05,0,.1-.01,.14-.04,.05,0,.08,0,.11-.02s.05-.02,.07-.02l.18,.07s.16,.02,.32,.07,.35,.11,.56,.18,.39,.13,.56,.18,.26,.07,.29,.07c.14,0,.41,.02,.79,.07s.79,.1,1.22,.16,.83,.11,1.21,.14,.63,.05,.77,.05c.86,.26,1.3,.84,1.3,1.73,0,.55-.08,1.06-.25,1.51s-.25,.95-.25,1.48c0,.7,.06,1.31,.18,1.84s.26,1.04,.43,1.53,.35,.99,.56,1.49,.38,1.07,.52,1.69c.02,.05,.05,.16,.07,.32s.05,.35,.09,.54,.07,.37,.09,.54,.05,.28,.07,.32c0,.07,.04,.22,.13,.43s.18,.46,.29,.74,.22,.54,.32,.79,.19,.45,.23,.59c.02,.05,.09,.17,.2,.36s.22,.4,.32,.63,.2,.44,.29,.63,.13,.3,.13,.32c.07,.1,.13,.28,.18,.56s.1,.44,.14,.49c.26,.62,.54,1.27,.83,1.93s.59,1.27,.9,1.82c.05,0,.16,.01,.32,.04s.28,.04,.32,.04c.43,0,.81-.07,1.13-.2s.57-.44,.74-.92c.07-.1,.16-.28,.25-.56s.19-.58,.29-.9,.19-.62,.27-.9,.14-.47,.16-.59c.46-.29,.82-.67,1.08-1.15s.47-1,.61-1.55,.24-1.1,.29-1.66,.07-1.07,.07-1.55v-.07c-.02-.14-.05-.34-.09-.59s-.07-.5-.09-.74-.04-.45-.05-.63-.02-.29-.02-.34c0-.02-.04-.12-.13-.29s-.17-.35-.25-.54-.17-.38-.25-.56-.14-.29-.16-.34c-.07-.29-.13-.64-.16-1.04s-.08-.82-.13-1.24-.12-.82-.22-1.21-.26-.72-.5-1.01c-.02-.05-.16-.13-.41-.25s-.44-.2-.56-.25c-.43-.14-.84-.24-1.22-.29s-.71-.14-.97-.27-.47-.32-.63-.58-.23-.64-.23-1.17v-.25c0-.12,.01-.25,.04-.38s.12-.25,.29-.34c.07-.02,.19-.08,.36-.16s.35-.16,.54-.23,.37-.14,.52-.2,.26-.09,.31-.09h.36c.38,0,.74,.07,1.08,.22s.71,.22,1.12,.22h5.65s.14,.03,.27,.09,.28,.13,.43,.22,.32,.17,.49,.25,.3,.16,.4,.23c.02,.05,.16,.19,.4,.41s.34,.43,.29,.59c-.05,.22-.18,.37-.4,.45s-.44,.19-.67,.31-.43,.31-.61,.56-.27,.64-.27,1.17c0,.62,.05,1.34,.14,2.14s.28,1.51,.54,2.1c.05,.07,.14,.23,.27,.47s.27,.5,.41,.79,.27,.56,.38,.81,.17,.41,.2,.49c.02,.02,.04,.17,.04,.43s0,.53-.02,.79-.02,.41-.02,.43c.05,.29,.17,.59,.36,.92s.34,.63,.43,.92c.12,.34,.2,.68,.25,1.04s.07,.73,.07,1.12c0,.22-.01,.43-.04,.65s-.04,.43-.04,.65c.26,.34,.49,.69,.67,1.06s.37,.73,.56,1.08,.41,.68,.65,1.01,.55,.61,.94,.85h.07c.22,0,.43-.08,.65-.25s.38-.34,.5-.5c.12-.14,.2-.29,.23-.45s.06-.31,.07-.47,.02-.32,.04-.49,.05-.36,.13-.58c0-.05,.08-.17,.23-.38s.23-.33,.23-.38c.34-.74,.6-1.49,.79-2.25s.46-1.52,.79-2.28c0-.05,.07-.17,.22-.38s.22-.33,.22-.38c.26-.43,.46-.94,.59-1.51s.2-1.1,.2-1.58v-.4s-.04-.17-.13-.36-.13-.31-.13-.36c-.02-.12-.04-.35-.04-.68v-2.12c0-.31,.01-.54,.04-.68-.17-.38-.43-.74-.79-1.08s-.73-.67-1.1-1.01-.7-.68-.97-1.04-.41-.76-.41-1.19v-.18c.26-.53,.63-.83,1.1-.92s.97-.13,1.49-.13c.72,0,1.43,.05,2.14,.14s1.41,.14,2.1,.14c.17,0,.4,0,.68-.02s.46-.02,.5-.02c.02,0,.1-.02,.22-.07s.25-.1,.4-.14,.28-.1,.4-.14,.19-.07,.22-.07h.32c.22,0,.45,.04,.7,.13s.49,.2,.7,.34,.4,.32,.56,.52,.23,.41,.23,.63v.04c-.17,.55-.34,1.12-.52,1.69s-.51,1.03-.99,1.37c-.02,.02-.1,.07-.22,.13s-.25,.13-.4,.22-.28,.17-.41,.25-.22,.14-.27,.16c-.02,.02-.08,.1-.18,.22s-.21,.26-.34,.41-.27,.31-.41,.47-.25,.28-.32,.38c-.19,.29-.29,.58-.31,.88s-.05,.59-.13,.88c-.17,.48-.35,1.04-.54,1.69s-.36,1.16-.5,1.55c0,.1-.07,.28-.22,.54s-.22,.41-.22,.43c-.05,.07-.11,.25-.2,.52s-.16,.58-.23,.9-.14,.64-.22,.95-.13,.54-.18,.68v.5c-.31,1.03-.68,1.93-1.1,2.68s-.94,1.52-1.57,2.28c-.07,.05-.17,.14-.31,.27s-.22,.21-.27,.23c-.02,.05-.05,.14-.09,.29s-.08,.3-.13,.47-.1,.33-.16,.49-.1,.25-.13,.27-.06,.11-.11,.25c-.02,.07-.05,.16-.07,.25-.02,0-.08,.04-.16,.11s-.17,.16-.27,.25l-.36,.36s-.04,.2-.13,.47-.13,.44-.13,.54c-.1,.48-.23,1.02-.4,1.62s-.4,1.18-.68,1.73-.64,1.01-1.04,1.39-.91,.56-1.51,.56-1.07-.1-1.42-.31-.62-.47-.81-.79-.35-.7-.47-1.13-.25-.88-.4-1.33c-.1-.19-.18-.34-.25-.45s-.16-.26-.25-.45c-.19-.46-.31-.98-.34-1.57s-.11-1.09-.23-1.49c-.1-.91-.28-1.71-.54-2.39s-.64-1.39-1.12-2.1h-.65c-.34,0-.59,.06-.76,.18s-.31,.27-.41,.45-.21,.4-.31,.65-.23,.5-.4,.74l-.25,.25c-.12,.12-.25,.25-.4,.38s-.27,.26-.38,.38-.17,.19-.2,.22c-.05,0-.1,.07-.16,.22s-.11,.24-.16,.29c-.05,.12-.11,.29-.18,.5s-.14,.44-.22,.68-.13,.46-.18,.65-.08,.32-.11,.4-.08,.26-.16,.56-.17,.62-.27,.97-.18,.67-.25,.97-.11,.49-.11,.56c0,.02-.04,.14-.11,.34s-.16,.44-.27,.7-.22,.53-.34,.81-.22,.49-.29,.63c-.19,.41-.41,.72-.67,.94s-.63,.32-1.13,.32-.94-.07-1.37-.2-.79-.43-1.08-.88Z"/>
    <path class="cls-12" d="M584.77,221.33c0-.22,.12-.49,.36-.81s.46-.55,.65-.67c.1-.02,.27-.06,.52-.11s.52-.11,.81-.18,.56-.13,.83-.18,.46-.08,.58-.11c.48-.05,.83-.14,1.06-.29s.39-.46,.49-.94c.07-.55,.13-1.16,.16-1.82s.05-1.28,.05-1.85v-.5c0-.07-.04-.22-.11-.43s-.11-.35-.11-.4c-.02-.1-.05-.31-.07-.65s-.05-.7-.07-1.1-.05-.77-.07-1.12-.05-.56-.07-.63c0-.02-.04-.15-.13-.38s-.13-.37-.13-.41v-.18c.36-2.73,.54-5.43,.54-8.1,0-.7-.05-1.38-.14-2.05s-.14-1.36-.14-2.05v-.58c-.07-.05-.2-.13-.4-.25s-.31-.2-.36-.25-.13-.14-.25-.27-.2-.22-.25-.27c-.36-.17-.77-.28-1.24-.34s-.91-.14-1.33-.25-.77-.28-1.04-.52-.41-.62-.41-1.15v-.43c0-.1,.01-.18,.04-.25,.05-.1,.2-.21,.45-.34s.44-.2,.56-.2h7.48c.1,.1,.27,.2,.52,.32s.4,.19,.45,.22h.25c.82,0,1.61-.13,2.37-.4s1.56-.4,2.37-.4h1.04c.55,.05,1.15,.15,1.8,.31s1.26,.23,1.84,.23c.26,0,.53-.05,.79-.14s.55-.14,.86-.14h.18c.22,.07,.51,.15,.88,.23s.75,.19,1.13,.31,.74,.26,1.06,.43,.55,.36,.67,.58c.22,.38,.44,.79,.68,1.22s.46,.88,.67,1.33,.37,.92,.5,1.4,.2,.95,.2,1.4c0,.26-.07,.53-.2,.79s-.33,.46-.59,.58c-.07,.05-.23,.07-.49,.07h-.52c-.43,0-.76-.02-.97-.07s-.4-.14-.54-.27-.28-.3-.41-.5-.32-.45-.56-.74c-.02-.05-.11-.14-.25-.29s-.3-.29-.47-.45-.33-.31-.49-.45-.26-.24-.31-.29c-.02-.05-.06-.17-.11-.38s-.07-.33-.07-.38c-.14-.36-.35-.61-.63-.76s-.58-.25-.92-.32-.68-.14-1.03-.22-.67-.22-.95-.43h-3.81c-.31,0-.58,.11-.81,.32s-.45,.43-.67,.65c-.5,.62-.8,1.34-.88,2.14s-.13,1.59-.13,2.36c0,.84,.01,1.62,.04,2.34s.12,1.51,.29,2.37c.02,.34,.13,.55,.31,.63s.39,.13,.63,.13h.54s.16-.03,.34-.09,.29-.09,.34-.09c.07-.02,.23-.05,.49-.09s.52-.07,.79-.09,.54-.04,.79-.05,.41-.02,.49-.02c.34-.07,.61-.18,.81-.32s.37-.32,.49-.52,.23-.43,.32-.67,.22-.48,.36-.72c.12-.24,.25-.51,.4-.81s.31-.58,.49-.85,.39-.49,.63-.68,.53-.29,.86-.29c.31,0,.53,.1,.65,.31s.19,.47,.22,.81c.12,.84,.19,1.57,.22,2.19s.04,1.34,.04,2.16v1.33c0,.14-.01,.39-.04,.74s-.05,.7-.07,1.06-.05,.7-.07,1.03-.05,.53-.07,.63c0,.12-.04,.31-.13,.58s-.13,.43-.13,.5v1.19c0,.19,0,.38-.02,.58s-.07,.35-.16,.47c-.1,.07-.27,.2-.52,.4s-.43,.31-.52,.36h-.61c-.12,0-.22,.01-.31,.04s-.15,.04-.2,.04c-.14,0-.25-.08-.32-.25-.1-.1-.2-.27-.32-.52s-.19-.44-.22-.56v-2.99c-.02-.31-.12-.57-.29-.77s-.38-.35-.65-.45-.56-.16-.88-.2-.64-.05-.95-.05h-2.05c-.24,0-.47,.01-.7,.04s-.44,.08-.63,.16-.35,.22-.47,.4-.18,.41-.18,.7v.36c.02,.07,.05,.26,.07,.58s.05,.64,.09,.97,.07,.65,.09,.95,.05,.49,.07,.56v3.31s.02,.09,.05,.2,.08,.24,.13,.4l.14,.47c.05,.16,.1,.28,.14,.38,.12,.29,.27,.5,.45,.63s.38,.22,.59,.27,.45,.07,.7,.07,.51,.02,.77,.07c.41,.05,.82,.13,1.22,.25s.85,.18,1.33,.18h1.12c.74,0,1.51-.02,2.28-.07s1.53-.17,2.25-.36c.05,0,.14-.04,.29-.13s.24-.13,.29-.13c.05-.07,.16-.17,.32-.31s.34-.28,.52-.43,.35-.31,.5-.47,.26-.27,.31-.34c.07-.05,.2-.17,.4-.36l.63-.63c.23-.23,.44-.43,.63-.61s.32-.29,.4-.34c.12-.12,.25-.2,.38-.23s.28-.05,.45-.05h.5c.26,0,.55,.01,.86,.04s.56,.11,.76,.25c.48,.34,.9,.69,1.26,1.06s.54,.86,.54,1.46v.43c-.02,.1-.07,.25-.13,.45s-.13,.41-.22,.63-.17,.41-.25,.59-.14,.31-.16,.38c-.12,.19-.35,.41-.68,.67s-.6,.44-.79,.56c-.14,.07-.33,.17-.56,.29s-.45,.23-.67,.34-.41,.2-.58,.27-.26,.11-.29,.11h-3.24c-.29,.79-.63,1.57-1.03,2.32s-.59,1.54-.59,2.36c0,.41,.1,.85,.31,1.33s.37,.94,.49,1.37c.1,.26,.16,.55,.2,.85s.13,.58,.27,.85c.17,.29,.34,.54,.5,.76s.32,.46,.47,.72l.58,.32c.17,.17,.34,.27,.52,.31s.4,.07,.67,.09l2.34,.14c.43,0,.78-.06,1.04-.18s.58-.18,.94-.18h.5c.46,0,.68,.22,.68,.65,0,.19-.08,.4-.25,.61-.53,.67-1.15,1.22-1.85,1.66s-1.46,.77-2.25,1.01l-.9,.43c-.26,.05-.56,.08-.88,.09s-.63,.02-.92,.02c-.22,0-.52-.02-.9-.07s-.72-.1-1.01-.14l-.54-.25c-.34-.1-.65-.22-.95-.36s-.62-.28-.95-.4l-.61-.32-.43-.61c-.1-.29-.22-.56-.36-.81s-.3-.51-.47-.77c-.26-.46-.45-.96-.56-1.51s-.16-1.12-.16-1.69c0-.26,.02-.59,.07-.97s.1-.72,.14-1.01l.11-1.04,.32-1.22,.5-1.15c.31-.67,.71-1.27,1.19-1.78s1.02-.98,1.62-1.39h-15.58c-.34,.12-.68,.19-1.04,.22s-.73,.04-1.12,.04h-2.55c-.1,0-.25-.03-.45-.09s-.31-.11-.31-.16c-.05-.1-.14-.27-.29-.52s-.22-.41-.22-.49Z"/>
    <path class="cls-12" d="M620.56,221.15c0-.17,.08-.37,.25-.61s.32-.41,.47-.5c.07-.02,.2-.07,.4-.13s.41-.13,.65-.22,.47-.16,.68-.23,.37-.13,.47-.18c.05,0,.15-.01,.31-.04s.32-.05,.5-.07,.34-.05,.49-.07,.23-.05,.25-.07c.29-.1,.51-.28,.67-.54s.28-.56,.36-.88,.14-.65,.16-.97,.05-.61,.07-.85v-3.53s.01-.11,.04-.25,.05-.3,.09-.47,.07-.32,.09-.47,.04-.23,.04-.25v-.25c0-.19-.01-.37-.04-.52s-.04-.32-.04-.49c0-.14,.02-.31,.07-.49s.13-.37,.25-.56c-.05-1.8-.02-3.57,.07-5.33s.14-3.53,.14-5.33v-.54s-.02-.1-.05-.22-.08-.26-.13-.41l-.14-.47c-.05-.16-.1-.27-.14-.34-.17-.46-.45-.75-.85-.88s-.82-.23-1.28-.31-.91-.18-1.35-.32-.79-.47-1.03-.97v-.58c0-.55,.21-.93,.63-1.13s.87-.33,1.35-.38h3.31c.1,0,.28,0,.56-.02s.57-.03,.88-.05,.61-.05,.88-.07,.47-.05,.59-.07c.05,0,.22-.04,.5-.11s.46-.11,.5-.11c.05-.02,.16-.05,.32-.09s.36-.07,.58-.09l.65-.07c.22-.02,.38-.04,.5-.04h.25c.38,.02,.89,.04,1.51,.05s1.22,.04,1.8,.09c.67,.05,1.38,.1,2.12,.14,.1,0,.35,.06,.77,.18s.76,.2,1.03,.25c.6,.19,1.22,.31,1.87,.34s1.27,.2,1.87,.49c1.01,.41,2.02,.91,3.04,1.49s1.91,1.34,2.68,2.25c.14,.24,.28,.47,.4,.68,.12,.19,.24,.37,.36,.54s.22,.31,.29,.43c0,.12,.07,.31,.2,.56s.21,.4,.23,.45,.1,.13,.22,.25,.26,.25,.41,.4,.29,.28,.41,.4l.22,.22s.1,.19,.16,.41,.09,.35,.09,.38c.05,.05,.1,.13,.16,.23s.09,.17,.09,.2c0,.22,.02,.6,.07,1.15s.1,1.13,.16,1.75,.11,1.19,.16,1.75,.08,.94,.11,1.15v.76l-.18,.36c-.1,.19-.2,.4-.32,.61s-.23,.42-.32,.61-.16,.32-.18,.4v2.27l-.14,.22c-.05,.07-.08,.14-.11,.22-.05,.1-.13,.32-.25,.68s-.2,.59-.25,.68l-.14,.07c-.07,.05-.11,.08-.11,.11-.07,.07-.17,.19-.31,.36s-.26,.33-.4,.49-.25,.3-.36,.43-.16,.21-.16,.23c-.02,.05-.08,.14-.16,.27s-.18,.27-.29,.41-.22,.29-.32,.45-.19,.27-.23,.34c-.14,.24-.28,.43-.4,.56s-.24,.25-.36,.34-.26,.19-.41,.27-.35,.2-.59,.34c-.02,.02-.11,.1-.25,.23s-.24,.21-.29,.23c-.36,.29-.76,.53-1.19,.74s-.87,.4-1.31,.59-.88,.4-1.3,.61-.81,.49-1.17,.83h-2.7l-.25,.13c-.12,.06-.2,.09-.25,.09-.07,.02-.2,.05-.38,.07s-.38,.05-.59,.09-.42,.07-.61,.09-.32,.05-.4,.07c-1.58,.1-3.09,.16-4.53,.2s-2.91,.05-4.43,.05h-2.81c-.26,.1-.49,.15-.67,.16s-.39,.02-.63,.02h-.9c-.29,0-.59-.01-.92-.04s-.62-.08-.9-.18-.5-.23-.68-.41-.27-.43-.27-.74Zm11.95-9.57v1.44c0,.55,.02,1.16,.05,1.84s.14,1.3,.31,1.87c.17,.58,.41,1.06,.74,1.46s.76,.59,1.31,.59c.43,0,.79-.04,1.06-.13s.63-.2,1.06-.34c.07-.02,.24-.08,.5-.16s.55-.16,.86-.23c.31-.07,.6-.14,.86-.22s.43-.12,.5-.14c.05,0,.12-.03,.22-.09s.17-.09,.22-.09c.07-.07,.23-.2,.49-.38s.52-.37,.79-.58,.53-.39,.77-.56,.38-.28,.43-.32c.17-.1,.36-.19,.58-.27s.43-.19,.65-.31,.42-.25,.61-.4,.34-.31,.43-.5c.26-.5,.47-1.04,.61-1.62s.35-1.12,.61-1.62c.02-.02,.08-.1,.16-.23s.17-.26,.27-.4,.18-.26,.25-.38,.12-.2,.14-.25c.19-.55,.33-1.22,.41-2.01s.13-1.46,.13-2.01c0-.62-.03-1.16-.09-1.6s-.17-.86-.34-1.24-.38-.76-.65-1.12c-.26-.36-.59-.77-.97-1.22l-.14-.14c-.07-.07-.11-.12-.11-.14-.31-.48-.6-.94-.86-1.37s-.55-.82-.85-1.17-.65-.66-1.04-.94-.88-.51-1.46-.7c-.22-.07-.58-.19-1.08-.34s-1.03-.32-1.58-.49-1.07-.31-1.57-.43-.83-.2-1.03-.25c-.1-.02-.21-.04-.34-.04h-.27c-.43,0-.77,.07-1.03,.2s-.53,.31-.85,.52v2.48c-.02,.07-.05,.22-.07,.45s-.05,.47-.09,.72-.07,.49-.09,.7-.04,.35-.04,.4v5.79c0,.14-.01,.41-.04,.79s-.05,.79-.07,1.21-.05,.82-.09,1.19-.05,.63-.05,.77c0,.05-.04,.17-.13,.38s-.13,.33-.13,.38v1.26Z"/>
    <path class="cls-12" d="M678.01,220.36c0-.31,.13-.56,.4-.74s.55-.34,.85-.49,.58-.29,.85-.45,.4-.37,.4-.63c0-.41-.14-.88-.41-1.4s-.56-.96-.85-1.3c-.07-.07-.23-.26-.47-.56s-.5-.62-.77-.95-.53-.66-.77-.97-.4-.5-.47-.58c-.48-.58-.97-1.07-1.48-1.48s-1.03-.91-1.58-1.51c-.02,0-.09,0-.2-.02s-.19-.02-.23-.02c-.31,0-.58,.08-.79,.25s-.4,.38-.54,.65-.25,.55-.32,.85-.12,.57-.14,.81c-.02,.14-.05,.38-.09,.72s-.08,.7-.13,1.1-.1,.77-.16,1.13l-.13,.76v.83s.04,.09,.13,.2,.18,.24,.29,.4,.23,.32,.36,.49,.23,.3,.31,.4c.17,.24,.39,.44,.67,.59s.55,.32,.83,.5,.51,.39,.7,.63,.29,.54,.29,.9c0,.31-.1,.57-.31,.77s-.45,.36-.74,.47-.59,.19-.9,.23-.58,.07-.79,.07h-6.55c-.07,0-.24,.01-.5,.04s-.55,.05-.86,.09-.6,.07-.86,.11-.43,.07-.5,.09h-.58c-.34,0-.7-.13-1.08-.4-.38-.26-.57-.59-.57-.97v-.18c0-.07,.04-.17,.11-.31s.15-.28,.23-.45,.16-.32,.23-.45,.12-.23,.14-.31c.1-.19,.24-.31,.43-.36s.4-.08,.61-.09,.43-.03,.65-.05,.42-.11,.61-.25c.41-.34,.71-.73,.9-1.17s.46-.88,.79-1.31c0-.31,.02-.8,.05-1.46s.07-1.41,.11-2.25,.07-1.72,.11-2.64,.07-1.81,.11-2.64,.07-1.59,.09-2.25,.04-1.15,.04-1.46c0-.02,0-.16,.02-.4s.02-.51,.02-.81,0-.61,.02-.92,.02-.55,.02-.72c0-.12,0-.32-.02-.59s-.02-.57-.02-.88,0-.6-.02-.86-.02-.44-.02-.54c-.1-.38-.19-.79-.29-1.21s-.25-.79-.47-1.1c-.26-.36-.55-.6-.86-.72s-.64-.23-.97-.32-.67-.23-.99-.41-.63-.52-.92-1.03c-.19-.38-.29-.76-.29-1.12,0-.41,.11-.65,.34-.74s.51-.13,.85-.13c.74,0,1.49,.04,2.23,.11s1.48,.14,2.21,.22,1.46,.14,2.19,.2,1.48,.07,2.25,.02c.14,.05,.36,.16,.65,.32s.56,.37,.83,.59,.5,.46,.7,.7,.31,.44,.31,.61c0,.19-.09,.37-.27,.52s-.39,.32-.63,.49-.47,.35-.7,.54-.38,.41-.45,.65v5.72c.02,.26,.05,.54,.07,.83s.08,.55,.18,.77,.22,.41,.38,.56,.38,.22,.67,.22c.07,0,.16-.01,.27-.04s.19-.04,.23-.04c.02-.02,.11-.1,.27-.22s.32-.25,.49-.4,.32-.28,.47-.4,.24-.19,.29-.22c.1-.12,.28-.28,.54-.47s.41-.31,.43-.36c.05,0,.17-.02,.38-.07s.31-.11,.31-.18c.36-.24,.71-.54,1.04-.9s.64-.74,.92-1.15,.51-.84,.7-1.3,.32-.91,.4-1.37c-.07-.07-.16-.22-.25-.43s-.2-.44-.31-.68-.2-.47-.29-.68-.13-.37-.13-.47c-.02-.12-.05-.23-.07-.32-.05-.24-.07-.42-.07-.54s.02-.3,.07-.54c.02-.1,.05-.2,.07-.32,.02-.05,.12-.17,.29-.38s.31-.33,.43-.38c.07-.02,.2-.06,.4-.11l.65-.16c.24-.06,.47-.11,.7-.16s.4-.07,.52-.07h2.73s.13-.01,.25-.04,.25-.04,.38-.05,.26-.03,.38-.05,.19-.04,.22-.04c.12-.02,.32-.05,.61-.09s.59-.07,.9-.09,.61-.05,.88-.07,.47-.04,.59-.04h1.08c.43,0,.88,.04,1.33,.11s.82,.28,1.08,.61c.07,.1,.19,.28,.34,.54s.23,.42,.23,.47c0,.1-.08,.27-.23,.52s-.27,.43-.34,.52c-.07,.05-.21,.14-.41,.29s-.43,.3-.67,.47-.47,.32-.68,.45-.37,.21-.47,.23c-.05,.05-.13,.08-.25,.11s-.25,.05-.38,.07-.26,.04-.4,.05-.21,.02-.23,.02c-.6,.17-1.22,.4-1.85,.7s-1.16,.67-1.57,1.1c-.1,.05-.25,.2-.45,.47s-.32,.42-.34,.47c-.26,.31-.56,.56-.9,.74s-.68,.35-1.04,.52-.7,.35-1.03,.54-.58,.44-.77,.76c-.05,.05-.12,.17-.22,.36s-.2,.4-.31,.63-.21,.44-.31,.63-.16,.3-.18,.32c-.05,.05-.14,.19-.29,.41s-.23,.35-.25,.38v.68c0,.62,.11,1.18,.32,1.67s.49,.95,.83,1.37,.71,.83,1.12,1.22,.82,.82,1.22,1.28c.05,.05,.14,.17,.27,.38s.22,.33,.27,.38c.14,.19,.34,.44,.58,.74s.48,.59,.72,.88l.63,.76c.18,.22,.28,.34,.31,.36,.53,.55,1.1,1.05,1.73,1.49l1.87,1.33c.62,.44,1.24,.9,1.84,1.37s1.14,1,1.62,1.6c.12,.12,.19,.25,.22,.38s.04,.28,.04,.45v.79c0,.17-.01,.32-.04,.45s-.1,.27-.22,.41c-.07,.05-.17,.13-.29,.25l-.38,.38-.38,.38c-.12,.12-.19,.2-.22,.25h-.36c-.84,0-1.68-.08-2.52-.25s-1.64-.25-2.41-.25h-3.49c-.24-.02-.58-.07-1.03-.14s-.88-.19-1.31-.36-.81-.37-1.13-.61-.49-.53-.49-.86Z"/>
    <path class="cls-12" d="M695.52,220.46c0-.6,.16-1.04,.47-1.31s.7-.48,1.15-.61,.93-.24,1.42-.32,.91-.22,1.24-.41l.22-.22,.22-.22c.38-.31,.7-.59,.95-.85s.47-.52,.65-.79,.34-.58,.47-.92,.28-.76,.45-1.26c0-.05,.04-.16,.11-.32s.16-.35,.25-.54l.27-.54,.16-.32c0-.07,0-.22,.02-.43s.03-.45,.05-.7,.05-.49,.07-.7,.04-.36,.04-.43c.1-.19,.18-.34,.25-.45s.13-.22,.18-.32,.07-.17,.07-.2c.02-.07,.06-.24,.11-.5s.1-.55,.16-.86,.11-.61,.16-.88,.1-.44,.14-.49c.22-.98,.54-1.97,.97-2.95s.85-1.93,1.26-2.84c0-.05,.03-.17,.09-.38s.11-.33,.16-.38c.02-.12,.07-.32,.14-.59s.15-.56,.23-.85,.16-.56,.23-.81,.12-.41,.14-.49c0-.02,.01-.1,.04-.22s.05-.25,.07-.4,.05-.28,.07-.4,.05-.2,.07-.25c0-.05,.04-.17,.13-.38s.13-.33,.13-.38l.36-.5c.12-.12,.23-.25,.34-.4s.2-.25,.27-.32,.25-.19,.52-.34,.58-.32,.92-.5,.65-.34,.95-.47,.49-.2,.56-.2c.34,0,.67,.16,.99,.47s.62,.71,.9,1.19,.53,1.01,.76,1.6,.44,1.16,.63,1.73,.35,1.07,.47,1.51,.22,.77,.29,.99c0,.05,.04,.17,.13,.38s.13,.33,.13,.38c.48,1.08,.88,2.22,1.19,3.42s.66,2.4,1.04,3.6v1.01c.07,.31,.24,.57,.5,.77s.46,.44,.58,.7c0,.07,.04,.23,.13,.47s.18,.5,.29,.79,.22,.55,.32,.79,.19,.4,.23,.47c.02,.05,.09,.19,.2,.43s.23,.5,.38,.79,.28,.55,.41,.79,.22,.4,.27,.47c0,.02,.02,.1,.05,.23s.08,.27,.13,.41,.1,.28,.14,.4,.08,.18,.11,.18c.14,.34,.4,.7,.77,1.08s.74,.77,1.12,1.17,.7,.77,.99,1.13,.43,.67,.43,.94c0,.36-.07,.73-.22,1.1s-.41,.67-.79,.88c-.77,.05-1.57,.14-2.39,.29s-1.63,.22-2.39,.22h-.43c-.22-.02-.58-.07-1.1-.13s-1.06-.11-1.62-.16-1.09-.09-1.58-.13-.82-.07-.99-.09c-.67-.46-1.01-1.06-1.01-1.8,0-.58,.14-.98,.43-1.22s.61-.46,.97-.65,.68-.44,.97-.76,.43-.83,.43-1.55-.08-1.28-.25-1.69-.41-.71-.74-.92-.71-.33-1.17-.38-.96-.07-1.51-.07h-2.88c-.31,.07-.64,.19-.99,.34s-.67,.35-.97,.59-.55,.51-.74,.81-.29,.63-.29,.99c0,.46,.11,.85,.34,1.19s.49,.66,.77,.97,.55,.62,.77,.94,.34,.67,.34,1.08c0,.65-.1,1.13-.31,1.46s-.47,.55-.81,.68-.74,.2-1.21,.2-.95,.01-1.46,.04c-.1,0-.37,.01-.81,.04s-.92,.05-1.42,.09-.98,.07-1.44,.09-.73,.04-.83,.04h-.5c-.17-.02-.41-.05-.72-.09s-.63-.07-.95-.09-.61-.04-.86-.05-.41-.02-.49-.02c-.41-.1-.79-.31-1.15-.65s-.54-.74-.54-1.22Zm13.46-13.92c0,.43,.09,.78,.27,1.04s.4,.47,.67,.63,.56,.26,.9,.31,.67,.07,1.01,.07h1.19c.26-.12,.43-.25,.49-.4s.09-.31,.09-.5c-.02-.02-.04-.05-.04-.07v-.11s-.04-.11-.04-.18c-.02-.05-.09-.16-.2-.32s-.22-.35-.32-.54-.22-.37-.32-.54-.17-.28-.2-.32c-.1-.24-.17-.49-.22-.76s-.11-.52-.18-.77-.17-.49-.29-.7-.31-.41-.58-.58h-.32c-.29,0-.5,.07-.63,.2s-.23,.3-.29,.5-.1,.43-.11,.67-.04,.47-.09,.68c-.07,.19-.15,.35-.23,.49s-.17,.25-.25,.36-.16,.23-.22,.36-.09,.29-.09,.49Z"/>
    <path class="cls-12" d="M733.76,223.59c-.22-.07-.48-.22-.79-.45s-.47-.44-.47-.63c0-.5,.1-.87,.31-1.1s.45-.42,.74-.58,.59-.32,.9-.49,.58-.44,.79-.83c.02-.02,.07-.11,.14-.27s.15-.34,.23-.54,.16-.41,.23-.61,.12-.37,.14-.49c.02-.07,.07-.19,.13-.36s.11-.35,.16-.54,.09-.38,.13-.56,.07-.31,.09-.38c.02,0,.05-.06,.07-.18s.05-.25,.07-.38l.07-.4c.02-.13,.04-.22,.04-.27,.05-.05,.11-.2,.2-.47s.13-.42,.13-.47c-.07-.07-.18-.25-.32-.52s-.23-.44-.25-.49v-.36c0-.29,.04-.57,.13-.85s.13-.56,.13-.85c0-1.01-.08-1.98-.25-2.93s-.25-1.96-.25-3.04c0-.02,.01-.11,.04-.25s.05-.3,.09-.47,.07-.33,.09-.49,.04-.26,.04-.31v-5.15c-.05-.43-.22-.8-.52-1.12-.3-.31-.62-.54-.95-.68-.12-.07-.32-.17-.61-.29s-.59-.25-.92-.38-.63-.25-.92-.36-.49-.19-.61-.23c-.07-.17-.17-.43-.31-.77s-.17-.58-.13-.7c0-.05,.06-.13,.18-.25s.2-.23,.25-.32c.1-.05,.27-.12,.52-.22s.43-.17,.52-.22h3.49c.07,0,.23,.01,.47,.04s.5,.05,.77,.09,.53,.07,.77,.09,.4,.04,.47,.04h2.27s.14,.02,.29,.07,.29,.1,.45,.16,.31,.11,.45,.16,.24,.08,.29,.11h.43c.94,0,1.85-.08,2.73-.25s1.79-.25,2.7-.25h1.62c.53,.05,.99,.23,1.39,.56s.79,.62,1.17,.88c1.1,.98,1.96,2.01,2.55,3.09s.9,2.41,.9,3.99c0,.77-.03,1.46-.09,2.07s-.27,1.25-.63,1.93c-.07,.12-.19,.29-.36,.5s-.33,.44-.49,.67-.3,.44-.43,.63-.21,.31-.23,.36c-.17,.22-.37,.42-.59,.61-.23,.19-.44,.39-.65,.59s-.38,.42-.52,.65-.22,.49-.22,.77c0,.36,.07,.74,.2,1.15s.32,.73,.56,.97c.46,.55,1,1.04,1.62,1.48s1.14,.95,1.55,1.55c.07,0,.13,.07,.18,.22l.07,.22c.41,.62,.78,1.17,1.12,1.64s.82,.94,1.44,1.42c.22,.17,.48,.34,.79,.5s.61,.35,.9,.54,.53,.43,.74,.7,.31,.61,.31,.99c0,.34-.16,.66-.47,.97s-.68,.58-1.1,.81-.85,.41-1.28,.54-.77,.2-1.01,.2h-1.15s-.14-.04-.36-.13-.34-.13-.36-.13h-1.51c-.36-.02-.7-.26-1.01-.72s-.6-.98-.86-1.57-.5-1.16-.7-1.73-.37-.99-.49-1.28c0-.07-.04-.2-.13-.38s-.18-.37-.29-.58-.21-.4-.31-.59-.18-.32-.25-.4c-.17-.34-.46-.58-.86-.74s-.77-.33-1.08-.52c-.07,0-.13-.05-.18-.14-.02-.05-.05-.08-.07-.11s-.07-.09-.14-.2-.15-.22-.23-.32-.17-.21-.25-.31-.14-.14-.16-.14c-.02-.02-.05-.04-.07-.05s-.05-.04-.07-.09c-.02-.02-.05-.06-.07-.11-.05-.02-.15-.08-.31-.16s-.32-.17-.49-.25-.32-.16-.45-.22-.21-.1-.23-.13l-.29-.29-.29-.29c-.34-.19-.71-.35-1.12-.49s-.8-.2-1.19-.2h-.18l-.14,.07c-.07,.05-.11,.1-.11,.14-.02,.07-.07,.17-.14,.31s-.14,.28-.22,.43-.15,.3-.23,.43-.14,.23-.16,.31v2.91c0,.48,.03,.95,.09,1.42s.22,.87,.49,1.21c0,.05,.13,.23,.38,.54,.25,.31,.46,.55,.63,.72,.24,.26,.52,.46,.83,.58s.61,.25,.9,.4,.53,.33,.72,.56,.29,.58,.29,1.06c0,.29-.12,.47-.36,.54s-.49,.11-.76,.11h-.68c-.1,0-.28,.01-.54,.04s-.55,.05-.85,.07-.58,.05-.83,.07-.43,.05-.52,.07c-.05,0-.13,.01-.23,.04s-.23,.05-.38,.09-.28,.07-.4,.09-.2,.04-.25,.04h-.25s-.11-.01-.25-.04-.29-.05-.45-.09-.31-.07-.47-.09-.25-.04-.27-.04c-.19,0-.5-.01-.94-.04s-.89-.04-1.37-.04-.93,.01-1.35,.04-.71,.04-.88,.04Zm7.7-17.56v.04c.02,.07,.08,.18,.16,.32s.16,.3,.23,.47,.14,.32,.22,.47,.12,.25,.14,.32h1.76c.14-.02,.41-.07,.79-.14s.79-.15,1.22-.23,.84-.17,1.22-.25,.65-.15,.79-.2c.31-.24,.61-.55,.88-.92s.51-.77,.7-1.21,.35-.88,.47-1.33,.18-.88,.18-1.26v-.16c0-.06-.01-.09-.04-.09,0-.05-.04-.22-.13-.5s-.13-.46-.13-.5c0-.07,0-.22-.02-.43s-.03-.44-.05-.68-.05-.47-.09-.68-.07-.36-.09-.43c0-.05-.02-.13-.07-.25s-.08-.2-.11-.25l-.56-.56-.77-.77c-.26-.26-.51-.5-.74-.72s-.38-.36-.45-.43c-.05-.05-.2-.13-.47-.25s-.46-.2-.58-.25l-.25-.13c-.12-.06-.25-.11-.4-.16s-.28-.1-.4-.14-.19-.07-.22-.07h-.43c-.07,.02-.19,.08-.34,.16s-.33,.18-.52,.29-.38,.22-.56,.32-.31,.19-.38,.23c-.34,.26-.55,.57-.65,.92s-.14,.73-.14,1.13c0,.22,0,.44,.02,.67s.02,.44,.02,.63v.4s-.04,.17-.13,.36-.13,.31-.13,.36v.22c0,.48,.05,.94,.16,1.39s.16,.91,.16,1.39-.05,.95-.16,1.42-.16,.98-.16,1.53Z"/>
    <path class="cls-12" d="M766.5,217.23v-.86s.07-.2,.22-.47,.22-.42,.22-.47c.12-.29,.23-.61,.32-.95s.21-.68,.34-.99,.31-.58,.54-.79,.53-.32,.92-.32h.36c.07,0,.17,.11,.29,.32s.22,.38,.29,.5c.31,.58,.65,1.23,1.03,1.96s.8,1.41,1.3,2.03,1.06,1.15,1.69,1.58,1.37,.65,2.21,.65c.31,0,.71-.11,1.21-.34s.97-.5,1.44-.81,.88-.64,1.24-.99,.58-.65,.65-.92c.1-.29,.17-.55,.23-.79s.09-.49,.09-.76c0-.22-.02-.46-.07-.72s-.13-.56-.25-.9c0-.29-.25-.68-.74-1.19s-1.06-1-1.71-1.49-1.27-.94-1.87-1.35-1.01-.67-1.22-.79c-.26-.1-.53-.15-.79-.16s-.49-.1-.68-.27c-.02-.05-.08-.12-.18-.22s-.2-.2-.32-.31-.23-.21-.32-.31-.16-.14-.18-.14c-.05-.1-.2-.23-.45-.41s-.44-.32-.56-.41l-.47-.25c-.07-.07-.2-.2-.4-.38s-.4-.38-.61-.59l-.61-.61-.4-.4c-.14-.41-.28-.82-.4-1.22s-.24-.83-.36-1.26c-.02-.12-.06-.29-.11-.5s-.1-.43-.16-.63-.11-.38-.14-.54-.05-.25-.05-.27c-.05-.65,0-1.33,.14-2.03s.36-1.39,.65-2.03,.64-1.25,1.06-1.82,.88-1.03,1.39-1.39c.02-.05,.15-.1,.38-.16s.37-.11,.41-.16c.36-.14,.76-.37,1.19-.67s.88-.6,1.33-.9,.91-.56,1.37-.77,.89-.32,1.3-.32,.87,.09,1.39,.27,.97,.33,1.35,.45c.65,.22,1.27,.42,1.85,.61s1.12,.44,1.58,.76,.84,.71,1.12,1.19,.41,1.1,.41,1.87c0,.26-.03,.64-.09,1.13s-.16,.97-.31,1.44-.34,.88-.59,1.22-.58,.52-.99,.52h-.25s-.13-.22-.25-.5-.2-.46-.25-.5c-.34-.6-.7-1.18-1.1-1.73s-.84-1.04-1.33-1.46-1.03-.75-1.6-.99-1.22-.36-1.94-.36c-.22,0-.46,.01-.74,.04s-.53,.11-.77,.25c-.82,.62-1.43,1.28-1.85,1.98s-.63,1.57-.63,2.63c0,.58,.13,1.1,.4,1.57s.6,.88,1.01,1.24,.86,.67,1.37,.94,1,.47,1.48,.61c.02,.02,.11,.05,.25,.07s.31,.05,.49,.07,.34,.05,.49,.07,.23,.04,.25,.04c.05,0,.13,.04,.25,.13s.2,.13,.25,.13c.53,.38,1.07,.76,1.64,1.13s1.12,.76,1.66,1.15,1.06,.82,1.57,1.28,.96,.95,1.37,1.48c.02,.02,.07,.11,.14,.25s.15,.31,.23,.49l.25,.54c.08,.18,.15,.32,.2,.41,0,.05,0,.14,.02,.29s.03,.3,.05,.47,.05,.33,.07,.49,.06,.25,.11,.27c.1,.29,.21,.55,.34,.77s.26,.45,.4,.67,.25,.43,.34,.65,.14,.47,.14,.76c0,.77-.16,1.48-.49,2.12s-.65,1.33-.99,2.05c-.34,.5-.75,1-1.24,1.48s-.92,.88-1.28,1.19c-.96,.84-2.06,1.43-3.31,1.78s-2.45,.52-3.6,.52c-.86,0-1.74-.05-2.63-.14s-1.7-.31-2.45-.65c-.05-.02-.14-.08-.29-.16s-.31-.18-.49-.29-.35-.21-.5-.31-.26-.16-.31-.18c-.48-.29-.9-.55-1.26-.77s-.67-.49-.92-.77-.44-.64-.56-1.04-.18-.94-.18-1.58Z"/>
    <path class="cls-12" d="M811.07,220.36c0-.31,.13-.56,.4-.74s.55-.34,.85-.49,.58-.29,.85-.45,.4-.37,.4-.63c0-.41-.14-.88-.41-1.4s-.56-.96-.85-1.3c-.07-.07-.23-.26-.47-.56s-.5-.62-.77-.95-.53-.66-.77-.97-.4-.5-.47-.58c-.48-.58-.97-1.07-1.48-1.48s-1.03-.91-1.58-1.51c-.02,0-.09,0-.2-.02s-.19-.02-.23-.02c-.31,0-.58,.08-.79,.25s-.4,.38-.54,.65-.25,.55-.32,.85-.12,.57-.14,.81c-.02,.14-.05,.38-.09,.72s-.08,.7-.13,1.1-.1,.77-.16,1.13l-.13,.76v.83s.04,.09,.13,.2,.18,.24,.29,.4,.23,.32,.36,.49,.23,.3,.31,.4c.17,.24,.39,.44,.67,.59s.55,.32,.83,.5,.51,.39,.7,.63,.29,.54,.29,.9c0,.31-.1,.57-.31,.77s-.45,.36-.74,.47-.59,.19-.9,.23-.58,.07-.79,.07h-6.55c-.07,0-.24,.01-.5,.04s-.55,.05-.86,.09-.6,.07-.86,.11-.43,.07-.5,.09h-.58c-.34,0-.7-.13-1.08-.4s-.58-.59-.58-.97v-.18c0-.07,.04-.17,.11-.31s.15-.28,.23-.45,.16-.32,.23-.45,.12-.23,.14-.31c.1-.19,.24-.31,.43-.36s.4-.08,.61-.09,.43-.03,.65-.05,.42-.11,.61-.25c.41-.34,.71-.73,.9-1.17s.46-.88,.79-1.31c0-.31,.02-.8,.05-1.46s.07-1.41,.11-2.25,.07-1.72,.11-2.64,.07-1.81,.11-2.64,.07-1.59,.09-2.25,.04-1.15,.04-1.46c0-.02,0-.16,.02-.4s.02-.51,.02-.81,0-.61,.02-.92,.02-.55,.02-.72c0-.12,0-.32-.02-.59s-.02-.57-.02-.88,0-.6-.02-.86-.02-.44-.02-.54c-.1-.38-.19-.79-.29-1.21s-.25-.79-.47-1.1c-.26-.36-.55-.6-.86-.72s-.64-.23-.97-.32-.67-.23-.99-.41-.63-.52-.92-1.03c-.19-.38-.29-.76-.29-1.12,0-.41,.11-.65,.34-.74s.51-.13,.85-.13c.74,0,1.49,.04,2.23,.11s1.48,.14,2.21,.22,1.46,.14,2.19,.2,1.48,.07,2.25,.02c.14,.05,.36,.16,.65,.32s.56,.37,.83,.59,.5,.46,.7,.7,.31,.44,.31,.61c0,.19-.09,.37-.27,.52s-.39,.32-.63,.49-.47,.35-.7,.54-.38,.41-.45,.65v5.72c.02,.26,.05,.54,.07,.83s.08,.55,.18,.77,.22,.41,.38,.56,.38,.22,.67,.22c.07,0,.16-.01,.27-.04s.19-.04,.23-.04c.02-.02,.11-.1,.27-.22s.32-.25,.49-.4,.32-.28,.47-.4,.24-.19,.29-.22c.1-.12,.28-.28,.54-.47s.41-.31,.43-.36c.05,0,.17-.02,.38-.07s.31-.11,.31-.18c.36-.24,.71-.54,1.04-.9s.64-.74,.92-1.15,.51-.84,.7-1.3,.32-.91,.4-1.37c-.07-.07-.16-.22-.25-.43s-.2-.44-.31-.68-.2-.47-.29-.68-.13-.37-.13-.47c-.02-.12-.05-.23-.07-.32-.05-.24-.07-.42-.07-.54s.02-.3,.07-.54c.02-.1,.05-.2,.07-.32,.02-.05,.12-.17,.29-.38s.31-.33,.43-.38c.07-.02,.2-.06,.4-.11l.65-.16c.24-.06,.47-.11,.7-.16s.4-.07,.52-.07h2.73s.13-.01,.25-.04,.25-.04,.38-.05,.26-.03,.38-.05,.19-.04,.22-.04c.12-.02,.32-.05,.61-.09s.59-.07,.9-.09,.61-.05,.88-.07,.47-.04,.59-.04h1.08c.43,0,.88,.04,1.33,.11s.82,.28,1.08,.61c.07,.1,.19,.28,.34,.54s.23,.42,.23,.47c0,.1-.08,.27-.23,.52s-.27,.43-.34,.52c-.07,.05-.21,.14-.41,.29s-.43,.3-.67,.47-.47,.32-.68,.45-.37,.21-.47,.23c-.05,.05-.13,.08-.25,.11s-.25,.05-.38,.07-.26,.04-.4,.05-.21,.02-.23,.02c-.6,.17-1.22,.4-1.85,.7s-1.16,.67-1.57,1.1c-.1,.05-.25,.2-.45,.47s-.32,.42-.34,.47c-.26,.31-.56,.56-.9,.74s-.68,.35-1.04,.52-.7,.35-1.03,.54-.58,.44-.77,.76c-.05,.05-.12,.17-.22,.36s-.2,.4-.31,.63-.21,.44-.31,.63-.16,.3-.18,.32c-.05,.05-.14,.19-.29,.41s-.23,.35-.25,.38v.68c0,.62,.11,1.18,.32,1.67s.49,.95,.83,1.37,.71,.83,1.12,1.22,.82,.82,1.22,1.28c.05,.05,.14,.17,.27,.38s.22,.33,.27,.38c.14,.19,.34,.44,.58,.74s.48,.59,.72,.88l.63,.76c.18,.22,.28,.34,.31,.36,.53,.55,1.1,1.05,1.73,1.49l1.87,1.33c.62,.44,1.24,.9,1.84,1.37s1.14,1,1.62,1.6c.12,.12,.19,.25,.22,.38s.04,.28,.04,.45v.79c0,.17-.01,.32-.04,.45s-.1,.27-.22,.41c-.07,.05-.17,.13-.29,.25l-.38,.38-.38,.38c-.12,.12-.19,.2-.22,.25h-.36c-.84,0-1.68-.08-2.52-.25s-1.64-.25-2.41-.25h-3.49c-.24-.02-.58-.07-1.03-.14s-.88-.19-1.31-.36-.81-.37-1.13-.61-.49-.53-.49-.86Z"/>
    <path class="cls-12" d="M842.29,223.2c-.1-.05-.3-.13-.61-.25s-.53-.2-.65-.25h-.94c-.17,.02-.41,.05-.74,.07l-.97,.07c-.32,.02-.61,.05-.86,.09s-.41,.07-.49,.09c-.02,0-.14,.03-.36,.09s-.34,.09-.36,.09h-.25s-.16-.03-.34-.09-.29-.09-.34-.09c-.5-.07-1.01-.11-1.53-.13s-.98-.07-1.39-.16-.74-.29-1.01-.59c-.26-.3-.4-.77-.4-1.42,0-.7,.22-1.17,.67-1.42s.97-.44,1.58-.58,1.23-.28,1.85-.45,1.1-.52,1.44-1.04v-.25c0-.41-.05-.82-.14-1.22s-.14-.85-.14-1.33c0-1.56,.07-3.09,.2-4.61s.23-3.02,.31-4.53v-3.06c.05-.62,.14-1.25,.27-1.89s.2-1.31,.2-2.03c0-.77-.08-1.48-.25-2.14s-.49-1.31-.97-1.96c-.05-.02-.1-.07-.16-.14s-.11-.14-.16-.22c-.07-.1-.13-.18-.18-.25h-2.81s-.19-.14-.43-.41-.41-.5-.5-.67c-.02-.05-.04-.11-.04-.18-.02-.07-.04-.18-.04-.32,0-.26,.07-.49,.22-.67s.34-.34,.58-.47,.5-.23,.77-.29,.55-.1,.81-.13h2.91c.24-.22,.48-.35,.72-.41s.5-.09,.79-.09c.22,0,.44,.01,.68,.04s.49,.04,.76,.04h.36s.2-.04,.47-.13,.44-.13,.54-.13c.05,0,.16,.03,.34,.09s.29,.11,.34,.16h4.53s.17-.1,.36-.16,.32-.09,.4-.09c.05,.02,.11,.05,.18,.07,.05,.02,.1,.05,.16,.09s.11,.07,.16,.09c.1,.05,.23,.13,.41,.25s.29,.18,.34,.18c.1,.12,.21,.28,.34,.47s.26,.38,.4,.56,.25,.34,.34,.49,.14,.24,.14,.29v.68l-.32,.11c-.14,.05-.29,.11-.45,.18s-.31,.13-.45,.18l-.32,.11s-.16,.07-.34,.22-.29,.22-.34,.22c-.34,.22-.67,.42-.99,.61s-.62,.4-.9,.63-.5,.49-.67,.79-.25,.67-.25,1.1c0,.36,.05,.71,.16,1.04s.16,.67,.16,1.01v.36s-.01,.14-.04,.29-.05,.29-.09,.45-.07,.31-.09,.47-.04,.26-.04,.31v3.45c-.05,.48-.19,.94-.41,1.39s-.34,.91-.34,1.39c0,.22,.03,.44,.09,.68s.09,.47,.09,.68v.43c-.1,.84-.19,1.7-.29,2.59s-.14,1.79-.14,2.7v.43c.07,.46,.13,.92,.18,1.39s.14,.89,.29,1.28,.37,.7,.68,.95,.76,.38,1.33,.38c.34,0,.61-.1,.83-.29s.48-.29,.79-.29h.14c.12,0,.18,.02,.18,.07,.07,.05,.2,.14,.38,.27s.37,.28,.56,.43,.37,.31,.52,.45,.27,.25,.34,.32c.17,.12,.38,.31,.63,.58s.38,.55,.38,.86v.07c-.12,.31-.32,.64-.59,.97s-.5,.61-.67,.83c-.02,0-.07,.04-.14,.11-.05,.02-.08,.05-.11,.07-.02,0-.11,.01-.27,.04s-.32,.05-.5,.09-.36,.07-.54,.09-.32,.04-.41,.04h-.83c-.17,0-.47-.01-.92-.04s-.92-.05-1.42-.09-.98-.07-1.42-.09-.76-.04-.95-.04Z"/>
  </g>
  <g>
    <rect class="cls-13" x="777.49" y="75.51" width="34.12" height="6.14" transform="translate(438.63 793.29) rotate(-69.18)"/>
    <path class="cls-3" d="M783.33,89.61s-7.13,5.29-9.29,9.94c0,0,4.48-3.03,9.29-9.94Z"/>
    <path class="cls-14" d="M778.62,129.48l-2.33,4.7-8.61,17.32c-.52,.22-.77,.34-.93,.23-.15-.09-.22-.35-.35-.84-.02-.05,3.74-11.2,6.05-18.03,1.02-3.02,1.75-5.19,1.75-5.19l3.74,1.52,.69,.28Z"/>
    <path class="cls-9" d="M803.08,67.02c-2.58,2.11-4.75,3.49-4.75,3.49-6.79-28.12,8.17-21.46,8.17-21.46,.86,.39,1.6,.81,2.21,1.24,6.84,4.78-.29,12.31-5.62,16.72Z"/>
    <polygon class="cls-4" points="793.7 94.21 785.71 91.26 796.86 62.91 804.85 65.85 793.7 94.21"/>
    <g>
      <path class="cls-1" d="M798.98,66.26s-8.07,19.05-7.6,19.96c.48,.91,7.6-19.96,7.6-19.96Z"/>
      <path class="cls-1" d="M791.2,86.66l-.16-.25c-.49-.93,4.54-13.11,7.58-20.29l.72,.27c-6.88,20.17-7.59,20.23-7.89,20.25l-.25,.02Zm.54-.54h0Z"/>
    </g>
    <path class="cls-6" d="M798.7,111.86l-28.36-10.79c.2-.4,.41-.78,.62-1.16l28.05,10.67c-.09,.43-.19,.87-.31,1.28Z"/>
    <path class="cls-14" d="M791.56,125.34c-3.94,4.64-9.52,9.49-15.27,8.84-.47-.04-.94-.13-1.41-.27-.25-.05-.48-.13-.72-.22-.63-.23-1.19-.49-1.72-.82-.01,0-.03-.03-.04-.03-2.02-1.27-3.38-3.27-4.25-5.62-1.42-3.75-1.63-8.37-1.44-12.31,.23-4.84,1.43-9.6,3.62-13.85l28.36,10.79c-1.28,4.95-3.78,9.56-7.14,13.49Z"/>
    <path class="cls-11" d="M799.01,110.58l-28.05-10.67c.69-1.23,1.49-2.42,2.37-3.55,4.47-5.71,10.07-9.06,15.15-8.75,.73,.04,1.43,.15,2.12,.35,.29,.08,.58,.18,.86,.28,5.41,2.06,8.33,8.58,8.22,16.58-.03,1.95-.26,3.88-.68,5.76Z"/>
    <path class="cls-10" d="M791.56,125.34c-3.94,4.64-9.52,9.49-15.27,8.84l-8.61,17.32c-.52,.22-.77,.34-.93,.23,1.92-4.31,6.3-13.05,8.13-17.82,.11-.28,.2-.56,.29-.8,.14-.7,1.21-2.1,2.76-3.91,4.58-5.36,13.38-14.32,14.98-19.56,.13-.43,.25-.84,.36-1.27,1.78-7.21-.26-13.3-2.55-17.4-.19-.32-.36-.63-.54-.91-.59-.97-1.16-1.8-1.69-2.48,.73,.04,1.43,.15,2.12,.35,.11,.03,.22,.07,.34,.11,.18,.04,.35,.11,.52,.17,.09,.03,.17,.07,.25,.11,5.25,2.15,8.08,8.59,7.97,16.47-.03,1.95-.26,3.88-.68,5.76-.09,.43-.19,.87-.31,1.28-1.28,4.95-3.78,9.56-7.14,13.49Z"/>
    <rect class="cls-6" x="799.86" y="60.76" width="1.54" height="8.48" transform="translate(455.88 790.52) rotate(-69.23)"/>
    <path class="cls-5" d="M806.53,61.54l-.66-.25c3.55-2.37,3.55-5.02,3.01-6.73,2.85,2-.12,5.14-2.35,6.98Z"/>
    <path class="cls-2" d="M802.09,51.75s-1.64,.92-1.82,2.26c0,0,1.84-1.59,1.82-2.26Z"/>
    <path class="cls-6" d="M766.58,153.12c-.15,0-.31-.03-.45-.1-.52-.25-.75-.88-.5-1.41,.26-.53,.89-.75,1.41-.5,.52,.25,.75,.88,.5,1.41h0c-.18,.38-.56,.6-.96,.6Zm0-1.34c-.11,0-.21,.06-.26,.16-.07,.14,0,.31,.14,.38,.14,.07,.32,0,.38-.13,.07-.14,0-.32-.13-.39-.04-.02-.08-.03-.13-.03Z"/>
    <g class="cls-7">
      <path class="cls-1" d="M783.88,92.64s-6.4,4.3-6.05,6.56c.35,2.27,10.23-8.84,6.05-6.56Z"/>
      <path class="cls-1" d="M778.14,99.89s-.07,0-.1,0c-.31-.05-.53-.28-.58-.62-.38-2.44,5.54-6.49,6.21-6.94l.03-.02c.54-.3,1.09-.52,1.43-.2,.34,.33,.07,.87-.02,1.07-.79,1.59-5.36,6.72-6.96,6.72Zm.07-.75h0Zm5.87-6.17c-2.4,1.61-6.09,4.7-5.87,6.17,.05-.02,.48-.1,1.63-1.08,2.06-1.75,4.16-4.33,4.6-5.26-.09,.04-.21,.09-.36,.18Z"/>
    </g>
  </g>
</svg>